<svg xmlns="http://www.w3.org/2000/svg" width="56.5" height="58.5">
    <path fill="none" fill-rule="evenodd" stroke="#979797" stroke-width="3" d="M25.7 3.782L4.936 17.983c-.893.61-1.426 1.618-1.426 2.694v29.388c0 1.807 1.476 3.272 3.297 3.272h10.738c1.82 0 3.296-1.465 3.296-3.272V35.746c0-1.807 1.476-3.272 3.297-3.272h6.864c1.821 0 3.297 1.465 3.297 3.272v14.319c0 1.807 1.476 3.272 3.297 3.272h10.739c1.82 0 3.296-1.465 3.296-3.272V20.677c0-1.076-.533-2.084-1.426-2.694L29.441 3.782c-1.126-.771-2.615-.771-3.741 0z"/>
</svg>
