<svg xmlns="http://www.w3.org/2000/svg" width="61.5" height="60.5">
    <path fill="#222" fill-rule="evenodd" stroke="#222" stroke-width="3" d="M52.325 26.61c3.612-3.612 4.785-8.736 3.525-13.334-.218-.793-1.232-1.039-1.814-.458l-7.78 7.78c-.424.424-1.111.424-1.534 0l-5.78-5.779c-.423-.424-.423-1.11 0-1.534l7.781-7.78c.581-.582.335-1.596-.459-1.814-4.596-1.26-9.72-.087-13.333 3.525-4.261 4.262-5.121 10.625-2.6 15.746.209.425.145.931-.19 1.265l-2.766 2.767c-.582.582-1.525.582-2.107 0h0c-.582-.582-1.525-.582-2.107 0L3.914 46.24c-.423.424-.423 1.11 0 1.534l7.854 7.853c.423.423 1.11.423 1.534 0l19.246-19.246c.582-.582.582-1.526 0-2.107l-.001-.001c-.582-.582-.582-1.526 0-2.107l2.767-2.767c.334-.334.84-.398 1.265-.189 5.122 2.52 11.484 1.662 15.746-2.6z"/>
</svg>
