<svg xmlns="http://www.w3.org/2000/svg" width="50" height="50" viewBox="0 0 50 50">
  <defs>
    <style>
      .cls-1 {
        fill: none;
        stroke: #fff;
        stroke-width: 4px;
        fill-rule: evenodd;
      }
    </style>
  </defs>
  <path id="모양_4087" data-name="모양 4087" class="cls-1" d="M25.194,47.9a22.758,22.758,0,0,1-11.938-3.377L4.92,46.834a1.179,1.179,0,0,1-1.409-1.578l2.9-7.21a21.836,21.836,0,0,1-1.664-2.783A22.806,22.806,0,0,1,15.009,4.737,22.741,22.741,0,0,1,45.524,15,22.807,22.807,0,0,1,35.268,45.525,22.465,22.465,0,0,1,25.194,47.9ZM13.443,42.063a1.181,1.181,0,0,1,.64.189,20.409,20.409,0,0,0,11.11,3.285,20.128,20.128,0,0,0,9.025-2.124,20.42,20.42,0,0,0-9.1-38.7,20.174,20.174,0,0,0-9.062,2.138A20.292,20.292,0,0,0,8.7,37.189a1.183,1.183,0,0,1,.143,1.138l-2.253,5.6,6.537-1.815A1.226,1.226,0,0,1,13.443,42.063Z"/>
</svg>
