<svg xmlns="http://www.w3.org/2000/svg" width="83.5" height="56.5">
    <path fill="none" fill-rule="evenodd" stroke="#979797" stroke-width="3" d="M18.062 42.871h47.225c.553 0 1 .447 1 1v6.95c0 .552-.447 1-1 1H18.062c-.552 0-1-.448-1-1v-6.95c0-.553.448-1 1-1zM24.146 38.067V20.37c0-9.429 7.643-17.072 17.072-17.072 9.429 0 17.072 7.643 17.072 17.072v17.697"/>
    <path fill="none" fill-rule="evenodd" stroke="#979797" stroke-linecap="round" stroke-linejoin="round" stroke-width="3" d="M13.41 29.144c-4.113-4.113-4.113-10.782 0-14.895M8.51 33.746c-6.656-6.656-6.656-17.447 0-24.103M68.544 29.083c4.101-4.108 4.101-10.768 0-14.875M73.43 33.679c6.637-6.647 6.637-17.424 0-24.071"/>
</svg>
