<svg xmlns="http://www.w3.org/2000/svg" width="83.5" height="56.5">
    <path fill="#222" fill-rule="evenodd" stroke="#222" stroke-width="3" d="M18.062 42.871h47.225c.553 0 1 .447 1 1v6.95c0 .552-.447 1-1 1H18.062c-.552 0-1-.448-1-1v-6.95c0-.553.448-1 1-1zM24.145 38.067V20.37c0-9.429 7.644-17.072 17.073-17.072 9.428 0 17.072 7.643 17.072 17.072v17.697"/>
    <path fill="none" fill-rule="evenodd" stroke="#222" stroke-linecap="round" stroke-width="3" d="M13.158 29.144c-4.008-4.113-4.008-10.782 0-14.895M8.383 33.746c-6.486-6.656-6.486-17.447 0-24.103M68.888 29.083c3.997-4.108 3.997-10.768 0-14.875M73.65 33.679c6.468-6.647 6.468-17.424 0-24.071"/>
</svg>
