<svg xmlns="http://www.w3.org/2000/svg" width="75.5" height="57.5">
    <path fill="none" fill-rule="evenodd" stroke="#979797" stroke-width="3" d="M41.444 50.08H10.815s-7.657.167-7.657-6.563V8.513s-1.575-5.47 7.657-5.47h7.657s6.779.749 9.845 8.751h24.066s7.657-.839 7.657 5.47"/>
    <path fill="none" fill-rule="evenodd" stroke="#979797" stroke-width="3" d="M58.946 22.733c3.625 0 6.563 2.939 6.563 6.563 0 3.625-2.938 6.564-6.563 6.564-3.625 0-6.563-2.939-6.563-6.564 0-3.624 2.938-6.563 6.563-6.563zM70.236 52.929v-5.162c0-6.305-5.111-11.416-11.416-11.416-6.305 0-11.416 5.111-11.416 11.416v5.162h22.832z"/>
</svg>
