<svg xmlns="http://www.w3.org/2000/svg" width="61.5" height="60.5">
    <path fill="none" fill-rule="evenodd" stroke="#979797" stroke-width="3" d="M52.325 26.61c3.612-3.612 4.785-8.736 3.525-13.334-.218-.793-1.232-1.039-1.814-.458l-7.78 7.781c-.424.423-1.11.423-1.534 0l-5.779-5.78c-.424-.423-.424-1.11 0-1.534l7.78-7.78c.582-.582.335-1.596-.458-1.814-4.597-1.26-9.721-.087-13.334 3.525-4.261 4.262-5.121 10.625-2.6 15.746.209.425.145.931-.189 1.265l-2.767 2.767c-.581.582-1.525.582-2.107 0h0c-.581-.582-1.525-.582-2.106 0L3.915 46.24c-.424.424-.424 1.11 0 1.534l7.853 7.853c.424.423 1.11.423 1.534 0l19.246-19.246c.582-.582.582-1.525 0-2.107l-.001-.001c-.582-.582-.582-1.525 0-2.107l2.767-2.766c.335-.335.84-.399 1.265-.19 5.122 2.521 11.484 1.662 15.746-2.6z"/>
</svg>
