<svg xmlns="http://www.w3.org/2000/svg" width="56.5" height="58.5">
    <path fill="#222" fill-rule="evenodd" stroke="#222" stroke-width="3" d="M25.642 3.782L4.932 17.983c-.89.61-1.422 1.618-1.422 2.694v29.387c0 1.808 1.472 3.272 3.288 3.272h10.71c1.816 0 3.288-1.464 3.288-3.272V35.746c0-1.807 1.472-3.272 3.288-3.272h6.847c1.816 0 3.288 1.465 3.288 3.272v14.318c0 1.808 1.472 3.272 3.288 3.272h10.711c1.816 0 3.288-1.464 3.288-3.272V20.677c0-1.076-.531-2.084-1.422-2.694L29.374 3.782c-1.123-.771-2.608-.771-3.732 0z"/>
</svg>
