<svg xmlns="http://www.w3.org/2000/svg" width="48" height="45" viewBox="0 0 48 45">
  <defs>
    <style>
      .cls-1 {
        fill: #fff;
        fill-rule: evenodd;
      }
    </style>
  </defs>
  <path id="모양_3780_복사_3" data-name="모양 3780 복사 3" class="cls-1" d="M47.218,11.713a11.149,11.149,0,0,0-3.844-7.407,13.88,13.88,0,0,0-8.718-3.232C29.067,0.8,15.8.619,11.142,1.314,5.817,2.107,2.324,4.943.855,9.74-0.278,13.433-.05,30.452.607,34.1c0.9,4.991,4.134,8.191,9.555,9.467,3.748,0.88,22.176.768,26.313,0.157,5.476-.806,8.993-3.741,10.417-8.677C47.977,31.254,47.6,15.13,47.218,11.713ZM42.84,33.395c-0.633,3.793-3.39,6.136-7.565,6.556-3.836.384-20.963,0.6-24.519-.313A7.37,7.37,0,0,1,4.844,33.51C4.3,30.521,4.172,15.6,4.835,11.608,5.46,7.85,8.218,5.5,12.371,5.082c4.209-.429,19.366-0.478,23.4.086,4.146,0.583,6.711,3.1,7.165,6.919C43.362,15.65,43.484,29.569,42.84,33.395Zm-19-22c-6.738-.006-12.192,4.977-12.19,11.136,0,6.13,5.443,11.1,12.162,11.114,6.747,0.013,12.217-4.96,12.223-11.114S30.582,11.391,23.835,11.391ZM23.751,29.712c-4.3-.01-7.8-3.249-7.8-7.226s3.53-7.167,7.915-7.167c4.344,0,7.852,3.229,7.852,7.223S28.177,29.717,23.751,29.712Zm15.6-18.737a2.869,2.869,0,0,1-5.711,0A2.866,2.866,0,0,1,39.35,10.976Z"/>
</svg>
