<svg xmlns="http://www.w3.org/2000/svg" width="25" height="46" viewBox="0 0 25 46">
  <defs>
    <style>
      .cls-1 {
        fill: #fff;
        fill-rule: evenodd;
      }
    </style>
  </defs>
  <path id="모양_3781_복사_3" data-name="모양 3781 복사 3" class="cls-1" d="M19.668,7.685c1.453-.048,2.9-0.01,4.364-0.014h0.6V0.411c-0.778-.077-1.587-0.183-2.4-0.221-1.491-.062-2.987-0.133-4.479-0.1a11.3,11.3,0,0,0-6.321,1.876A9.037,9.037,0,0,0,7.633,8.025a19.915,19.915,0,0,0-.264,3.117c-0.046,1.629-.008,3.26-0.008,4.891v0.61H0.123v8.11h7.2v20.39h8.792V24.791h7.175c0.367-2.7.727-5.372,1.1-8.153H22.776c-2.038.006-6.72,0-6.72,0s0.021-4.02.073-5.766C16.195,8.485,17.675,7.755,19.668,7.685Z"/>
</svg>
