<svg xmlns="http://www.w3.org/2000/svg" width="68.5" height="69.5">
    <path fill="none" fill-rule="evenodd" stroke="#fff" stroke-width="5" d="M27.452 11.552c-4.021.958-7.468 3.014-9.554 5.829-3.362 4.542-4.062 11.837-4.679 18.273-.093.977-.182 1.9-.279 2.816-.829 7.812-5.824 7.999-6.037 8.002h-.016c-.978 0-1.775.798-1.775 1.779 0 .981.797 1.779 1.775 1.779h51.446c.978 0 1.775-.798 1.775-1.779 0-.981-.797-1.779-1.775-1.779h-.017c-.212-.003-5.207-.19-6.036-8.002-.097-.916-.185-1.839-.279-2.815-.616-6.436-1.316-13.732-4.679-18.274-2.086-2.815-5.534-4.871-9.554-5.829m-3.158-.509c-.659-.058-1.327-.09-1.999-.09-.675 0-1.343.032-2.001.09-.757-.596-1.245-1.52-1.245-2.558 0-1.793 1.455-3.251 3.246-3.251 1.79 0 3.245 1.458 3.245 3.251 0 1.038-.489 1.962-1.246 2.558zM24.844 51.817c-.109.525-.163 1.058-.163 1.591 0 4.369 3.587 7.922 7.995 7.922 4.407 0 7.993-3.553 7.993-7.922 0-.533-.056-1.066-.164-1.591H24.844z"/>
</svg>
