<svg xmlns="http://www.w3.org/2000/svg" width="45" height="31" viewBox="0 0 45 31">
  <defs>
    <style>
      .cls-1 {
        fill: #fff;
        fill-rule: evenodd;
      }
    </style>
  </defs>
  <path id="모양_3779_복사_3" data-name="모양 3779 복사 3" class="cls-1" d="M4.941,29.334a5.1,5.1,0,0,1-3.42-3.206C0.041,22.2-.4,5.771,2.452,2.535A5.582,5.582,0,0,1,6.17.627c7.676-.8,31.4-0.684,34.136.267A5.268,5.268,0,0,1,43.663,4.01c1.619,4.059,1.675,18.832-.214,22.746A5.091,5.091,0,0,1,41.041,29.1C38.18,30.55,8.706,30.533,4.941,29.334Zm12.191-7.7,13.827-6.919c-4.642-2.339-9.215-4.643-13.827-6.965V21.631Z"/>
</svg>
