<svg xmlns="http://www.w3.org/2000/svg" width="57" height="56">
    <path fill="#222" fill-rule="evenodd" d="M50.918.865L.894 50.889c-1.166 1.166-1.164 3.06.005 4.229 1.169 1.169 3.063 1.171 4.229.004L55.151 5.098c1.167-1.166 1.165-3.059-.004-4.229-1.169-1.168-3.062-1.171-4.229-.004z"/>
    <path fill="#222" fill-rule="evenodd" d="M5.109.865l50.022 50.024c1.167 1.166 1.164 3.06-.004 4.229-1.17 1.169-3.063 1.171-4.229.004L.874 5.098C-.293 3.932-.291 2.039.878.869 2.048-.299 3.941-.302 5.109.865z"/>
</svg>
