<svg xmlns="http://www.w3.org/2000/svg" width="49.5" height="51.5">
    <path fill="#FFF" fill-rule="evenodd" stroke="#222" stroke-width="3" d="M6.498 4.5h35c2.762 0 5 2.238 5 5v34c0 2.761-2.238 4.999-5 4.999h-35c-2.76 0-4.999-2.238-4.999-4.999v-34c0-2.762 2.239-5 4.999-5z"/>
    <path fill="#FF4B13" fill-rule="evenodd" stroke="#222" stroke-width="3" d="M1.496 17.499v-8c0-2.761 3.239-5 6-5h34.001c2.761 0 4.999 2.239 4.999 5v8"/>
    <path fill="none" fill-rule="evenodd" stroke="#222" stroke-linecap="round" stroke-width="3" d="M14.997 27.499c-.828 0-1.499-.671-1.499-1.5s.671-1.5 1.499-1.5c.829 0 1.5.671 1.5 1.5s-.671 1.5-1.5 1.5zM14.997 33.499c-.828 0-1.499-.671-1.499-1.5 0-.828.671-1.5 1.499-1.5.829 0 1.5.672 1.5 1.5 0 .829-.671 1.5-1.5 1.5zM14.997 39.499c-.828 0-1.499-.671-1.499-1.5 0-.828.671-1.5 1.499-1.5.829 0 1.5.672 1.5 1.5 0 .829-.671 1.5-1.5 1.5zM23.998 27.499c-.829 0-1.501-.671-1.501-1.5s.672-1.5 1.501-1.5c.828 0 1.499.671 1.499 1.5s-.671 1.5-1.499 1.5zM23.998 33.499c-.829 0-1.501-.671-1.501-1.5 0-.828.672-1.5 1.501-1.5.828 0 1.499.672 1.499 1.5 0 .829-.671 1.5-1.499 1.5zM23.998 39.499c-.829 0-1.501-.671-1.501-1.5 0-.828.672-1.5 1.501-1.5.828 0 1.499.672 1.499 1.5 0 .829-.671 1.5-1.499 1.5zM32.996 27.499c-.828 0-1.499-.671-1.499-1.5s.671-1.5 1.499-1.5c.83 0 1.501.671 1.501 1.5s-.671 1.5-1.501 1.5zM32.996 33.499c-.828 0-1.499-.671-1.499-1.5 0-.828.671-1.5 1.499-1.5.83 0 1.501.672 1.501 1.5 0 .829-.671 1.5-1.501 1.5zM32.996 39.499c-.828 0-1.499-.671-1.499-1.5 0-.828.671-1.5 1.499-1.5.83 0 1.501.672 1.501 1.5 0 .829-.671 1.5-1.501 1.5z"/>
    <path fill="none" fill-rule="evenodd" stroke="#222" stroke-width="3" d="M3.498 15.5h42"/>
    <path fill="none" fill-rule="evenodd" stroke="#222" stroke-linecap="round" stroke-width="3" d="M16.497 3.499v5M34.497 3.499v5"/>
</svg>
