<?xml version="1.0" encoding="utf-8"?>
<!-- Generator: Adobe Illustrator 25.0.1, SVG Export Plug-In . SVG Version: 6.00 Build 0)  -->
<svg version="1.1" id="레이어_1" xmlns="http://www.w3.org/2000/svg" xmlns:xlink="http://www.w3.org/1999/xlink" x="0px"
	 y="0px" viewBox="0 0 197 93" style="enable-background:new 0 0 197 93;" xml:space="preserve">
<style type="text/css">
	.st0{fill:none;}
	.st1{fill:#fff;}
	.st2{fill:#fff;}
</style>
<rect x="662.71" y="119.28" class="st0" width="595.28" height="841.89"/>
<g>
	<g>
		<path class="st1" d="M111.42,77.48h-9.77v-5.46h8.44v-7.84c0-1.94-1.58-3.52-3.52-3.52h-9.71v3.35h8.43v4.65h-8.43v8.65
			c0,1.95,1.58,3.52,3.51,3.52h11.04V77.48z"/>
		<path class="st1" d="M108.13,88.62V82.6h-4.79v5.85c0,1.95,1.58,3.52,3.52,3.52h19v-3.35H108.13z"/>
		<rect x="120.47" y="60.66" class="st1" width="4.68" height="22.29"/>
		<polygon class="st1" points="118.53,60.66 113.84,60.66 113.84,68.69 111.32,68.69 111.32,72.04 113.84,72.04 113.84,82.95 
			118.53,82.95 		"/>
	</g>
	<g>
		<path class="st1" d="M193.49,69.28v-8.58h-4.79v31.32h1.26c1.94,0,3.53-1.57,3.53-3.51V72.63h3.77v-3.35H193.49z"/>
		<path class="st1" d="M166.46,64.04h11.74v5.24h-11.73v3.35h11.56c-0.8,5.38-4.53,8.86-8.87,8.86h-4.27v3.35h4.36
			c7.79,0,13.72-6.16,13.72-14.03V60.69h-16.52V64.04z"/>
	</g>
	<g>
		<path class="st1" d="M154.88,60.7v8.58h-4.05v3.35h4.05v19.38h1.27c1.94,0,3.52-1.57,3.52-3.52V60.7H154.88z"/>
		<path class="st1" d="M131.52,64.21v15.23c0,1.94,1.58,3.51,3.52,3.51h15.5v-3.35h-14.23v-6.97h11.67v-3.35h-11.67v-5.24h14.23
			V60.7h-15.5C133.1,60.7,131.52,62.27,131.52,64.21z"/>
	</g>
	<g>
		<g>
			<g>
				<path class="st2" d="M17.45,68.09c-3.29-1.54-6-2.79-6-5.31c0-1.92,1.54-3.32,4.58-3.32c1.11,0,2.04,0.13,2.98,0.3
					c0.49,0.08,1.02,0.16,1.46,0.16c2.66,0,4.17-1.59,5.16-4.6l0.41-1.23c-0.43-0.17-4.77-2.08-10.44-2.08
					c-9.02,0-13.78,5.78-13.77,11.78c0,3.02,0.94,5.22,2.42,6.94c1.92,2.22,4.64,3.67,7.19,4.91c3.71,1.83,7.06,3.17,7.06,5.87
					c0,2.39-2.48,3.76-5.78,3.76c-4.54,0-8.5-2.59-9.01-2.9L0,89.36c0.67,0.37,5.46,3.42,13.35,3.42c8.42,0,14.78-4.83,14.78-12.25
					C28.13,73.14,22.23,70.41,17.45,68.09z"/>
				<path class="st2" d="M50.35,71.54l15.25-18.7H54.74L42.57,68.98h-0.18V52.84h-8.96v39.63h0.53c3.87,0,8.48-1.79,8.48-8.27v-9.1
					h0.18l12.41,16.87h11.4L50.35,71.54z"/>
			</g>
			<g>
				<path class="st2" d="M66.12,10.39c-3.16,0.59-7.84,3.45-7.82,8.52c0.02,4.59,3.77,7.39,3.79,13.41
					c0.01,4.53-2.49,7.58-5.19,9.28c1.09-0.1,2.29-0.16,3.61-0.16c2.76-0.01,4.42,0.25,4.52,0.27l14.16-17.37
					C75.26,18.45,70.66,13.89,66.12,10.39z"/>
				<path class="st2" d="M78,57.28c1.79-2.77,2.01-7.19,2.16-11.69c0.17-4.2,1.04-7.36,6.66-7.37c1.24-0.01,2.43,0.16,4.58,0.16
					c8.24-0.04,13.6-2.87,16.95-4.73c-6.83-4.35-16.8-8.8-29.17-9.3c-0.81,2.27-7.07,19.7-7.55,21.1c0.07,0.09,1.18,1.32,2.54,3.71
					C76.2,52.45,77.28,55.24,78,57.28z"/>
			</g>
		</g>
		<g>
			<path class="st1" d="M48.11,43.05c-0.71,0.01-1.07-0.48-1.16-1.29c-0.1-0.82-3.63-33.2-4.16-38.1c-0.08-0.72-0.26-2.03-0.26-2.5
				C42.53,0.4,43.02,0,43.59,0c1.68,0,10.82,2.14,20.51,8.94c-2.79,0.79-7.85,3.69-7.82,9.71c0.02,5.32,3.84,8.26,3.85,13.6
				C60.17,40.94,50.18,43.04,48.11,43.05z"/>
			<path class="st1" d="M78.81,59.59c0.15,0.4,0.29,0.74,0.45,0.98c0.22,0.38,0.51,0.55,0.87,0.54c0.23,0,0.5-0.07,0.81-0.21
				c0.75-0.34,30.3-14.1,34.76-16.15c0.65-0.31,1.87-0.86,2.28-1.09c0.42-0.24,0.61-0.59,0.61-0.94c0-0.2-0.06-0.4-0.17-0.58
				c-0.56-0.9-3.42-3.94-8.2-7.25c-3.8,2.09-9.72,5.32-18.54,5.36c-2.16,0.01-2.65-0.14-4.12-0.13c-4.3,0.02-5.38,1.86-5.53,5.63
				c-0.03,0.71-0.04,1.68-0.08,2.73C81.79,51.83,81.39,56.48,78.81,59.59z"/>
		</g>
	</g>
</g>
</svg>
