<?xml version="1.0" encoding="utf-8"?>
<!-- Generator: Adobe Illustrator 25.2.3, SVG Export Plug-In . SVG Version: 6.00 Build 0)  -->
<svg version="1.1" id="레이어_1" xmlns="http://www.w3.org/2000/svg" xmlns:xlink="http://www.w3.org/1999/xlink" x="0px"
	 y="0px" viewBox="0 0 90 69" style="enable-background:new 0 0 90 69;" xml:space="preserve">
<style type="text/css">
	.st0{fill:#F08300;}
	.st1{fill:none;stroke:#E60012;stroke-width:3.9676;stroke-linecap:round;stroke-linejoin:round;stroke-miterlimit:10;}
	.st2{fill:none;stroke:#E60012;stroke-width:4.2321;stroke-linecap:round;stroke-linejoin:round;stroke-miterlimit:10;}
</style>
<g>
	<g>
	</g>
	<g>
		<g>
			<g>
				<g>
					<path class="st0" d="M35.58,56.29h-1.94v-4.25h-2.47v16.15h0.66c1,0,1.81-0.81,1.81-1.82v-8.35h1.94V56.29z"/>
				</g>
			</g>
		</g>
	</g>
	<g>
		<g>
			<g>
				<g>
					<path class="st0" d="M70.36,52.04v14.34c0,1-0.82,1.81-1.82,1.81h-0.65V52.04H70.36z"/>
					<path class="st0" d="M64.27,52.04v4.41h-1.3v-4.41h-6.55v1.73h4.08v2.68h-4.08v1.73h4c-0.41,2.78-2.33,4.59-4.57,4.59h-0.23
						v1.73h0.27c3.7,0,6.58-2.78,7.01-6.32h1.37v10h0.66c1,0,1.81-0.81,1.81-1.81V52.04H64.27z"/>
				</g>
				<g>
					<path class="st0" d="M19.12,52.04v9.66c0,1,0.81,1.81,1.81,1.81h6.23c1,0,1.81-0.81,1.81-1.81v-9.66H19.12z M26.51,61.79h-4.92
						v-8.02h4.92V61.79z"/>
				</g>
			</g>
		</g>
	</g>
	<g>
		<path class="st0" d="M88.55,52.04v14.34c0,1-0.81,1.82-1.81,1.82h-0.66V52.04H88.55z"/>
		<g>
			<path class="st0" d="M78.73,51.74c-3.3,0-5.39,2.83-5.39,6.32c0,3.49,2.1,6.32,5.39,6.32c3.3,0,5.4-2.83,5.4-6.32
				C84.13,54.57,82.04,51.74,78.73,51.74z M78.73,62.6c-2.06,0-2.79-2.03-2.79-4.54c0-2.51,0.73-4.54,2.79-4.54
				c2.07,0,2.8,2.03,2.8,4.54C81.53,60.57,80.8,62.6,78.73,62.6z"/>
		</g>
		<g>
			<path class="st0" d="M8.41,54.19l4.03,5.58c0.33,0.46,0.85,0.71,1.37,0.72l2-0.01l-6.1-8.44H7.93c-0.53,0.01-1.04,0.26-1.37,0.72
				l-5.58,7.72h2.89L8.41,54.19z"/>
			<rect x="0.27" y="64.49" class="st0" width="16.21" height="1.73"/>
		</g>
	</g>
	<rect x="83.01" y="56.88" class="st0" width="3.65" height="1.73"/>
	<g>
		<path class="st0" d="M41.2,60.35v-2.87h10.3v-1.72H41.2v-2h10.3v-1.72H40.54c-1,0-1.81,0.81-1.81,1.81v6.42
			c0,1,0.82,1.81,1.81,1.81H52.1v-1.73H41.2z"/>
		<rect x="37.33" y="64.49" class="st0" width="16.15" height="1.73"/>
	</g>
</g>
<g>
	<line class="st1" x1="75.66" y1="15.41" x2="49.34" y2="15.41"/>
	<path class="st2" d="M58.95,34.51H24.56c-2.15,2.6-5.41,4.25-9.04,4.25c-6.49,0-11.74-5.26-11.74-11.74c0-3.77,1.41-7.03,4.57-9.38
		C35.26-0.6,51.47,2.68,61.72,8.66c4.59,2.68,8.16,6.7,14.74,6.7c6.16,0.28,11.04,5.37,11.04,11.59c0,6.41-5.2,11.61-11.61,11.61
		c-3.02,0-5.77-1.15-7.84-3.05"/>
</g>
</svg>
