<svg xmlns="http://www.w3.org/2000/svg" width="54" height="67">
    <path fill="none" fill-rule="evenodd" stroke="#FF4B13" stroke-linecap="round" stroke-width="6" d="M47.779 28.622c-.667 6.924-3.959 12.065-7.624 18.174-3.287 5.477-11.897 13.966-13.917 14.122l.01.02c-.009 0-.024-.013-.033-.015-.012.001-.03.009-.041.009-.055 0-.13-.051-.207-.109-.09.07-.168.109-.23.109-.012 0-.031-.009-.043-.01-.009.002-.023.016-.03.016l.01-.02c-2.017-.154-10.619-8.645-13.901-14.122C8.16 40.769 4.908 35.688 4.18 28.904c-.136-.925-.211-1.896-.211-2.922 0-12.042 9.724-21.813 21.793-22.02v-.019c.066 0 .129.009.194.009s.127-.009.193-.009v.019c12.083.207 21.818 9.977 21.818 22.02 0 .926-.076 1.796-.188 2.64z"/>
    <path fill="none" fill-rule="evenodd" stroke="#FF4B13" stroke-linecap="round" stroke-width="6" d="M26 16c5.523 0 10 4.477 10 10s-4.477 10-10 10-10-4.477-10-10 4.477-10 10-10z"/>
</svg>
