<?xml version="1.0" encoding="utf-8"?>
<!-- Generator: Adobe Illustrator 25.2.1, SVG Export Plug-In . SVG Version: 6.00 Build 0)  -->
<svg version="1.1" id="레이어_1" xmlns="http://www.w3.org/2000/svg" xmlns:xlink="http://www.w3.org/1999/xlink" x="0px"
	 y="0px" viewBox="0 0 120 104" style="enable-background:new 0 0 120 104;" xml:space="preserve">
<style type="text/css">
	.st0{fill:#FFFFFF;}
	.st1{fill:#231F20;}
</style>
<g>
	<path class="st0" d="M3.81,39.91c0,5.09,3.67,9.33,8.51,10.23V29.69C7.48,30.59,3.81,34.83,3.81,39.91z"/>
	<path class="st0" d="M114.42,31.44v12.88c1-1.35,1.77-3.67,1.77-6.43C116.19,35.12,115.42,32.79,114.42,31.44z"/>
	<path class="st1" d="M120,37.89c0-5.43-2.34-9.86-5.58-11.12V1.9c0-0.75-0.44-1.43-1.13-1.73c-0.68-0.31-1.48-0.19-2.03,0.31
		l-10.08,8.83c-13.36,11.74-22.2,17.22-37.4,17.65v-3.73c0-1.06-0.85-1.91-1.9-1.91H14.22c-1.05,0-1.9,0.85-1.9,1.91v2.61
		C5.38,26.77,0,32.72,0,39.91c0,7.2,5.38,13.14,12.31,14.07v2.61c0,1.06,0.86,1.91,1.9,1.91h8.09l13.92,44.35
		c0.25,0.79,0.99,1.34,1.82,1.34h28.11c0.68,0,1.3-0.36,1.64-0.94c0.35-0.57,0.37-1.29,0.05-1.87L44.8,58.51h17.07
		c1.06,0,1.9-0.86,1.9-1.91v-3.73c15.2,0.42,24.04,5.91,37.4,17.65l10.08,8.84c0.35,0.31,0.8,0.47,1.26,0.47
		c0.26,0,0.53-0.05,0.78-0.16c0.69-0.32,1.13-1,1.13-1.73V49C117.66,47.74,120,43.32,120,37.89z M103.69,67.65
		c-6.8-5.97-12.64-10.6-19.05-13.75c-6.28-3.08-12.95-4.63-20.86-4.85V30.77c7.91-0.22,14.58-1.76,20.86-4.85
		c6.41-3.15,12.25-7.78,19.05-13.75l6.92-6.06v67.61L103.69,67.65z M39.45,100.39L26.29,58.51h14.18l22.5,41.88H39.45z M41.62,54.7
		H23.7h-7.58V25.14h43.84V54.7H41.62z M12.31,50.14c-4.83-0.9-8.51-5.13-8.51-10.23c0-5.08,3.67-9.33,8.51-10.23V50.14z
		 M114.42,31.44c1,1.35,1.77,3.68,1.77,6.45c0,2.76-0.77,5.09-1.77,6.43V31.44z"/>
	<path class="st0" d="M110.61,6.11l-6.92,6.06c-6.8,5.97-12.64,10.6-19.05,13.75c-6.28,3.08-12.95,4.63-20.86,4.85v18.29
		c7.91,0.22,14.58,1.76,20.86,4.85c6.41,3.15,12.25,7.78,19.05,13.75l6.92,6.07V6.11z"/>
	<polygon class="st0" points="59.97,25.14 16.12,25.14 16.12,54.7 23.7,54.7 41.62,54.7 59.97,54.7 	"/>
	<polygon class="st0" points="26.29,58.51 39.45,100.39 62.98,100.39 40.47,58.51 	"/>
</g>
</svg>
