<svg xmlns="http://www.w3.org/2000/svg" width="67" height="67">
    <path fill="none" fill-rule="evenodd" stroke="#222" stroke-width="2" d="M63.844 38.058V27.976l-7.501-1.364c-.52-1.865-1.251-3.638-2.183-5.288l4.334-6.262-7.129-7.129-6.262 4.334c-1.65-.933-3.423-1.664-5.288-2.183L38.45 2.583H28.369l-1.365 7.501c-1.865.519-3.638 1.25-5.287 2.183l-6.263-4.334-7.128 7.129 4.334 6.262c-.932 1.65-1.663 3.423-2.183 5.288l-7.5 1.364v10.082l7.5 1.365c.52 1.864 1.251 3.637 2.183 5.287l-4.334 6.262 7.128 7.129 6.263-4.334c1.649.932 3.422 1.663 5.287 2.183l1.365 7.501H38.45l1.365-7.501c1.865-.52 3.638-1.251 5.288-2.183l6.262 4.334 7.129-7.129-4.334-6.262c.932-1.65 1.663-3.423 2.183-5.287l7.501-1.365z"/>
    <path fill="none" fill-rule="evenodd" stroke="#222" stroke-width="2" d="M47.681 33.127c0 8.088-6.557 14.643-14.644 14.643s-14.643-6.555-14.643-14.643c0-8.087 6.556-14.643 14.643-14.643s14.644 6.556 14.644 14.643z"/>
</svg>
