<?xml version="1.0" encoding="utf-8"?>
<!-- Generator: Adobe Illustrator 25.2.1, SVG Export Plug-In . SVG Version: 6.00 Build 0)  -->
<svg version="1.1" id="레이어_1" xmlns="http://www.w3.org/2000/svg" xmlns:xlink="http://www.w3.org/1999/xlink" x="0px"
	 y="0px" viewBox="0 0 120 160" style="enable-background:new 0 0 120 160;" xml:space="preserve">
<style type="text/css">
	.st0{fill:#FFFFFF;}
	.st1{fill:#231F20;}
</style>
<g>
	<path class="st0" d="M94.89,53.75l3.08,1.61c0.61,0.32,1.05,0.86,1.27,1.51c0.2,0.65,0.14,1.36-0.18,1.97l-5.35,10.22
		c-0.46,0.89-1.35,1.39-2.28,1.39c-0.41,0-0.81-0.1-1.19-0.3l-4.67-2.44c-0.73-0.05-1.37-0.4-1.8-0.94l-6.11-3.19L59.01,99.34
		c-0.46,0.88-1.36,1.38-2.28,1.38c-0.41,0-0.81-0.1-1.2-0.3c-1.26-0.66-1.74-2.22-1.09-3.47l18.66-35.75l-12.57-6.56
		c-0.46-0.24-0.84-0.61-1.08-1.07H16.62c-6.33,0-11.47,5.13-11.47,11.47v78.33c0,6.33,5.13,11.47,11.47,11.47h4.67v-2.58
		c0-1.42,1.15-2.58,2.58-2.58c1.42,0,2.57,1.16,2.57,2.58v2.58h57.99v-19.95c0-1.42,1.15-2.57,2.57-2.57h19.42V65.04
		c0-6.31-5.1-11.43-11.41-11.46L94.89,53.75z M26.44,141.94c0,1.43-1.15,2.58-2.57,2.58c-1.43,0-2.58-1.15-2.58-2.58v-5.15
		c0-1.43,1.15-2.58,2.58-2.58c1.42,0,2.57,1.15,2.57,2.58V141.94z M26.44,126.47c0,1.42-1.15,2.58-2.57,2.58
		c-1.43,0-2.58-1.15-2.58-2.58v-5.15c0-1.43,1.15-2.58,2.58-2.58c1.42,0,2.57,1.15,2.57,2.58V126.47z M26.44,111
		c0,1.42-1.15,2.58-2.57,2.58c-1.43,0-2.58-1.16-2.58-2.58v-5.16c0-1.43,1.15-2.58,2.58-2.58c1.42,0,2.57,1.15,2.57,2.58V111z
		 M35.91,105.1h-0.03l-5.16-0.05c-1.42-0.01-2.57-1.18-2.55-2.59c0.01-1.43,1.19-2.57,2.61-2.57l5.16,0.05
		c1.42,0.01,2.57,1.18,2.55,2.61C38.48,103.96,37.33,105.1,35.91,105.1z M51.39,105.25c0,0-0.01,0-0.03,0l-5.16-0.05
		c-1.42-0.01-2.58-1.18-2.55-2.6c0.01-1.42,1.16-2.56,2.58-2.56h0.01l5.16,0.06c1.43,0.01,2.57,1.17,2.57,2.61
		C53.94,104.11,52.79,105.25,51.39,105.25z M66.85,105.4c0,0-0.01,0-0.03,0l-5.15-0.05c-1.43-0.01-2.58-1.17-2.55-2.61
		c0-1.42,1.18-2.55,2.59-2.55l5.16,0.05c1.43,0.01,2.57,1.18,2.57,2.6C69.42,104.25,68.27,105.4,66.85,105.4z M82.33,105.54
		c-0.01,0-0.01,0-0.03,0l-5.16-0.05c-1.42-0.01-2.57-1.18-2.55-2.61c0.01-1.42,1.18-2.55,2.58-2.55h0.03l5.16,0.05
		c1.42,0.01,2.57,1.18,2.55,2.6C84.89,104.4,83.75,105.54,82.33,105.54z M88.35,96.12c0,1.42-1.16,2.58-2.59,2.58
		c-1.42,0-2.57-1.16-2.57-2.58v-5.16c0-1.42,1.15-2.58,2.57-2.58c1.43,0,2.59,1.15,2.59,2.58V96.12z M88.35,80.64
		c0,1.42-1.16,2.58-2.59,2.58c-1.42,0-2.57-1.15-2.57-2.58v-5.16c0-1.42,1.15-2.58,2.57-2.58c1.43,0,2.59,1.16,2.59,2.58V80.64z"/>
	<path class="st0" d="M102.33,137.48H89.58v13.61l12.92-13.21C102.64,137.73,102.54,137.48,102.33,137.48z"/>
	<path class="st1" d="M51.4,100.09l-5.16-0.06h-0.01c-1.42,0-2.57,1.14-2.58,2.56c-0.03,1.42,1.13,2.59,2.55,2.6l5.16,0.05
		c0.01,0,0.03,0,0.03,0c1.4,0,2.55-1.14,2.58-2.55C53.97,101.27,52.83,100.1,51.4,100.09z"/>
	<path class="st1" d="M23.88,134.21c-1.43,0-2.58,1.15-2.58,2.58v5.15c0,1.43,1.15,2.58,2.58,2.58c1.42,0,2.57-1.15,2.57-2.58v-5.15
		C26.44,135.37,25.3,134.21,23.88,134.21z"/>
	<path class="st1" d="M85.76,88.38c-1.42,0-2.57,1.15-2.57,2.58v5.16c0,1.42,1.15,2.58,2.57,2.58c1.43,0,2.59-1.16,2.59-2.58v-5.16
		C88.35,89.54,87.19,88.38,85.76,88.38z"/>
	<path class="st1" d="M66.88,100.24l-5.16-0.05c-1.42,0-2.59,1.13-2.59,2.55c-0.03,1.43,1.12,2.59,2.55,2.61l5.15,0.05
		c0.01,0,0.03,0,0.03,0c1.42,0,2.57-1.15,2.59-2.56C69.44,101.41,68.31,100.25,66.88,100.24z"/>
	<path class="st1" d="M85.76,72.9c-1.42,0-2.57,1.16-2.57,2.58v5.16c0,1.42,1.15,2.58,2.57,2.58c1.43,0,2.59-1.15,2.59-2.58v-5.16
		C88.35,74.07,87.19,72.9,85.76,72.9z"/>
	<path class="st1" d="M82.36,100.39l-5.16-0.05h-0.03c-1.4,0-2.57,1.14-2.58,2.55c-0.01,1.43,1.13,2.59,2.55,2.61l5.16,0.05
		c0.01,0,0.01,0,0.03,0c1.42,0,2.57-1.14,2.58-2.55C84.92,101.56,83.77,100.4,82.36,100.39z"/>
	<path class="st1" d="M35.94,99.94l-5.16-0.05c-1.42,0-2.59,1.13-2.61,2.57c-0.01,1.42,1.13,2.58,2.55,2.59l5.16,0.05h0.03
		c1.42,0,2.57-1.14,2.58-2.55C38.5,101.12,37.36,99.96,35.94,99.94z"/>
	<path class="st1" d="M23.88,118.74c-1.43,0-2.58,1.15-2.58,2.58v5.15c0,1.42,1.15,2.58,2.58,2.58c1.42,0,2.57-1.15,2.57-2.58v-5.15
		C26.44,119.89,25.3,118.74,23.88,118.74z"/>
	<path class="st1" d="M23.88,103.26c-1.43,0-2.58,1.15-2.58,2.58V111c0,1.42,1.15,2.58,2.58,2.58c1.42,0,2.57-1.16,2.57-2.58v-5.16
		C26.44,104.42,25.3,103.26,23.88,103.26z"/>
	<polygon class="st0" points="113.58,19 89.15,6.24 75.93,43.86 90.27,51.34 	"/>
	<path class="st1" d="M119.93,17.5c-0.16-0.73-0.65-1.35-1.31-1.7L88.89,0.3c-0.66-0.35-1.45-0.39-2.13-0.12
		c-0.7,0.28-1.24,0.85-1.49,1.55L71.31,41.45l-3.07-1.6c-0.61-0.31-1.31-0.38-1.96-0.18c-0.66,0.21-1.2,0.66-1.51,1.27l-3.91,7.48
		c-24.07,0-46.82,0-46.82,0C6.32,48.42,0,54.74,0,62.46v83.49C0,153.71,6.29,160,14.04,160H87c0.52,0,1.02-0.15,1.44-0.44
		c0.14-0.1,0.28-0.21,0.41-0.34l0.29-0.3l21.61-21.61c0.53-0.53,0.82-1.24,0.82-1.99c0,0,0-63.24,0-84.33
		c0-1.42-1.15-2.58-2.58-2.58c-2.82,0-6.31,0-10.26,0l20.77-28.81C119.96,19,120.1,18.23,119.93,17.5z M106.42,65.04v67.28H87
		c-1.42,0-2.57,1.15-2.57,2.57v19.95H26.44v-2.58c0-1.42-1.15-2.58-2.57-2.58c-1.43,0-2.58,1.16-2.58,2.58v2.58h-4.67
		c-6.33,0-11.47-5.13-11.47-11.47V65.04c0-6.33,5.13-11.47,11.47-11.47h42.81c0.24,0.45,0.62,0.83,1.08,1.07l12.57,6.56L54.43,96.96
		c-0.65,1.26-0.16,2.82,1.09,3.47c0.39,0.2,0.8,0.3,1.2,0.3c0.92,0,1.82-0.5,2.28-1.38L77.67,63.6l6.11,3.19
		c0.43,0.54,1.07,0.89,1.8,0.94l4.67,2.44c0.38,0.2,0.78,0.3,1.19,0.3c0.93,0,1.82-0.51,2.28-1.39l5.35-10.22
		c0.31-0.61,0.38-1.32,0.18-1.97c-0.22-0.65-0.66-1.2-1.27-1.51l-3.08-1.61l0.13-0.17C101.32,53.61,106.42,58.73,106.42,65.04z
		 M89.58,151.09v-13.61h12.75c0.21,0,0.31,0.25,0.17,0.39L89.58,151.09z M93.3,58.74l-2.96,5.66L65.19,51.27l2.96-5.66L93.3,58.74z
		 M90.27,51.34l-14.34-7.49L89.15,6.24L113.58,19L90.27,51.34z"/>
	
		<rect x="76.05" y="40.82" transform="matrix(0.4633 -0.8862 0.8862 0.4633 -6.2112 99.749)" class="st0" width="6.39" height="28.37"/>
</g>
</svg>
