<svg xmlns="http://www.w3.org/2000/svg" width="94.5" height="94.5">
    <path fill="#FFF" fill-rule="evenodd" stroke="#EEE" stroke-width="3" d="M46.498 1.5c24.853 0 44.999 20.147 44.999 45s-20.146 45-44.999 45-45-20.147-45-45 20.147-45 45-45z"/>
    <path fill="#222" fill-rule="evenodd" d="M57.842 62.9c-7.311 4.421-17.196-.985-22.07-9.098l-.021.01c-.049-.086-.089-.177-.137-.264-.047-.082-.103-.16-.15-.242l.02-.01c-4.471-8.358-4.205-19.905 3.106-24.326 3.203-1.863 5.355 2.517 5.355 2.517l1.818 3.173s1.993 2.308-1.457 4.394c-3.36 2.032-2.66 7.457-.903 10.768 1.895 3.136 5.358 5.029 8.723 2.995 3.45-2.087 4.544.882 4.544.882l1.818 3.173s2.654 4.108-.646 6.028z"/>
</svg>
