<svg xmlns="http://www.w3.org/2000/svg" width="86" height="88">
    <path fill="none" fill-rule="evenodd" stroke="#222" stroke-linecap="round" stroke-width="4" d="M42.059 8.398C62.375 6.881 80.092 22.341 81.63 42.931c1.538 20.586-13.686 38.507-34.002 40.024-15.376 1.148-29.263-7.426-35.774-20.588"/>
    <path fill="none" fill-rule="evenodd" stroke="#222" stroke-width="4" d="M45.532 36.473c5.148 0 9.321 4.171 9.321 9.318 0 5.146-4.173 9.317-9.321 9.317-5.149 0-9.321-4.171-9.321-9.317 0-5.147 4.172-9.318 9.321-9.318z"/>
    <path fill="none" fill-rule="evenodd" stroke="#125A96" stroke-linejoin="round" stroke-width="4" d="M39.441 4.411C6.071 11.14.23 38.832 6.233 60.962c.067.247 21.978-8.483 21.978-8.483-2.055-15.655 5.825-22.513 13.671-25.568 0 0-2.41-22.506-2.441-22.5z"/>
    <path fill="#165D98" fill-rule="evenodd" d="M28.606 17.048c1.631 0 2.952 1.32 2.952 2.95 0 1.63-1.321 2.951-2.952 2.951-1.629 0-2.951-1.321-2.951-2.951 0-1.63 1.322-2.95 2.951-2.95zM15.819 41.641c1.63 0 2.951 1.321 2.951 2.951 0 1.628-1.321 2.951-2.951 2.951-1.631 0-2.952-1.323-2.952-2.951 0-1.63 1.321-2.951 2.952-2.951z"/>
</svg>
