<?xml version="1.0" encoding="utf-8"?>
<!-- Generator: Adobe Illustrator 25.2.1, SVG Export Plug-In . SVG Version: 6.00 Build 0)  -->
<svg version="1.1" id="레이어_1" xmlns="http://www.w3.org/2000/svg" xmlns:xlink="http://www.w3.org/1999/xlink" x="0px"
	 y="0px" viewBox="0 0 200 182" style="enable-background:new 0 0 200 182;" xml:space="preserve">
<style type="text/css">
	.st0{fill:none;}
	.st1{fill:#FFFFFF;}
	.st2{fill:#231F20;}
</style>
<g>
	<path class="st0" d="M89.71,126.76l23.78,2.08l21.93-4.3l10.77-6.24c-9.12-3.53-15.62-12.4-15.62-22.75c0-0.75,0.04-1.49,0.11-2.22
		H65.8c0.07,0.73,0.11,1.47,0.11,2.22c0,2.63-0.42,5.16-1.2,7.54l28.72-6.26c6.87-1.49,13.81,2.39,16.12,9.02
		c1.26,3.61,0.98,7.64-0.8,11.03c-1.78,3.39-4.9,5.95-8.6,6.97L89.71,126.76z"/>
	<path class="st1" d="M41.5,71.17c5.09,0,9.83,1.57,13.75,4.25h85.98c3.92-2.68,8.65-4.25,13.73-4.25c5.09,0,9.83,1.57,13.74,4.25
		h20.32v-5.21c0-7.81-5.61-13.52-16.66-17c-3.06-0.96-6.18-1.68-9.47-2.42c-4.26-0.98-8.68-1.98-12.95-3.58
		c-4.12-1.55-7.91-3.76-11.59-6.75c-4.85-3.93-8.85-8.67-12.7-13.23c-5.86-6.95-11.37-13.52-19.58-17.26
		c-8.46-3.86-19.58-3.66-27.69-3.51C72.1,6.59,64.72,6.97,57.79,9c-7.39,2.15-12.73,6.28-19.5,12.7
		c-7.1,6.73-17.35,16.83-24.37,26.77c-4.06,5.71-3.59,14.91-3.19,23.03c0.07,1.34,0.13,2.65,0.18,3.93h16.85
		C31.68,72.74,36.41,71.17,41.5,71.17z M45.88,32.38c0.57-0.96,1.26-1.88,1.95-2.62c3.17-3.39,6.47-6.9,10.6-9.61
		c7.63-5.02,17.4-4.62,26.01-4.26c2.2,0.1,4.25,0.18,6.21,0.18c10.92,0,17.55,7.12,23.39,14.43c1.96,2.44,3.41,6.45,1.95,9.5
		c-0.6,1.24-2.18,3.36-6.03,3.36H50.89c-3.58,0-5.22-1.59-5.98-2.92C43.71,38.33,44.05,35.45,45.88,32.38z"/>
	<path class="st1" d="M21.36,81.82H7.78H6.42v5.11H18.7C19.39,85.11,20.28,83.4,21.36,81.82z"/>
	<path class="st1" d="M61.65,81.82c1.08,1.58,1.98,3.29,2.67,5.11h67.84c0.69-1.81,1.59-3.53,2.67-5.11H61.65z"/>
	<path class="st1" d="M193.59,81.82h-1.36H175.1c1.08,1.58,1.98,3.29,2.67,5.11h15.82V81.82z"/>
	<path class="st2" d="M196.79,75.42h-1.36v-5.21c0-6-2.32-11.18-6.87-15.4c-3.51-3.24-8.31-5.85-14.28-7.73
		c-3.33-1.04-6.7-1.8-9.99-2.55c-4.23-0.96-8.25-1.88-12.09-3.33c-3.46-1.29-6.68-3.17-9.82-5.73c-4.38-3.54-7.99-7.82-11.82-12.38
		c-6.04-7.19-12.31-14.61-21.81-18.96C98.93-0.32,86.99-0.1,78.26,0.07c-6.7,0.12-14.61,0.54-22.27,2.77
		c-9.52,2.79-16.14,8.55-22.12,14.21c-7.29,6.92-17.84,17.31-25.19,27.71C3.34,52.3,3.86,62.68,4.33,71.81
		c0.06,1.24,0.12,2.45,0.16,3.61H3.21C1.43,75.42,0,76.85,0,78.63v11.5c0,1.78,1.43,3.21,3.21,3.21h14.01
		c-0.07,0.73-0.11,1.47-0.11,2.22c0,11.55,8.09,21.25,18.9,23.75l-4.93,4.92c-0.15-0.11-0.3-0.22-0.48-0.31
		c-0.84-0.42-1.81-0.45-2.67-0.08l-21.82,9.17c-1.43,0.61-2.22,2.13-1.9,3.65l9.31,42.45c0.34,1.48,1.63,2.54,3.14,2.54h25.41
		c0.98,0,1.91-0.47,2.52-1.24c0.62-0.77,0.84-1.8,0.59-2.75l-1.42-5.68h23.53c48.5,0,74.53-11.72,87.83-21.56
		c0.17-0.14,30.63-22.67,30.63-22.67c3.29-2.44,5.34-6.16,5.64-10.23c0.32-4.08-1.16-8.06-4.03-10.97
		c-2.48-2.48-5.71-3.87-9.03-4.09c0.65-2.19,1-4.5,1-6.89c0-0.75-0.04-1.49-0.11-2.22h17.55c1.76,0,3.21-1.43,3.21-3.21v-11.5
		C200,76.85,198.56,75.42,196.79,75.42z M172.93,95.56c0,3.08-0.78,5.99-2.16,8.53c-0.13,0.07-0.27,0.13-0.4,0.21l-15.9,9.21
		c-9.69-0.26-17.49-8.2-17.49-17.95c0-9.91,8.06-17.97,17.97-17.97C164.87,77.59,172.93,85.65,172.93,95.56z M182.82,111.08
		c1.56,1.56,2.37,3.73,2.2,5.95c-0.17,2.22-1.29,4.23-3.07,5.56c-30.25,22.39-30.65,22.67-30.65,22.67
		c-9.94,7.37-23.36,12.83-39.9,16.24c-13.15,2.7-28,4.06-44.1,4.06H42.16l-8.66-34.68l9.42-9.39c5.96-5.95,13.47-10.03,21.68-11.82
		l30.21-6.57c3.7-0.81,7.42,1.29,8.68,4.85c0.69,1.98,0.54,4.1-0.44,5.96c-0.97,1.86-2.62,3.21-4.63,3.76l-27.44,7.66
		c-1.49,0.42-2.47,1.83-2.34,3.38c0.15,1.55,1.38,2.77,2.92,2.91l41.82,3.64c0.3,0.03,0.61,0.02,0.91-0.03l22.91-4.48
		c0.34-0.07,0.67-0.18,0.99-0.37l35.42-20.52C176.59,108.12,180.39,108.63,182.82,111.08z M37.97,175.23H19.23l-8.16-37.35
		l15.89-6.68L37.97,175.23z M41.5,77.59c9.91,0,17.99,8.06,17.99,17.97c0,3.62-1.09,6.98-2.93,9.8c-5.19,1.9-10.02,4.64-14.32,8.13
		c-0.24,0.01-0.48,0.04-0.73,0.04c-9.91,0-17.97-8.06-17.97-17.97S31.59,77.59,41.5,77.59z M10.73,71.49
		c-0.4-8.11-0.87-17.31,3.19-23.03c7.02-9.94,17.26-20.03,24.37-26.77C45.06,15.28,50.4,11.15,57.79,9
		c6.94-2.03,14.31-2.42,20.59-2.54c8.11-0.15,19.23-0.35,27.69,3.51c8.21,3.75,13.72,10.31,19.58,17.26
		c3.85,4.57,7.84,9.31,12.7,13.23c3.68,2.99,7.47,5.21,11.59,6.75c4.26,1.59,8.68,2.6,12.95,3.58c3.29,0.74,6.42,1.46,9.47,2.42
		c11.05,3.48,16.66,9.19,16.66,17v5.21H168.7c-3.91-2.68-8.65-4.25-13.74-4.25c-5.09,0-9.82,1.57-13.73,4.25H55.24
		c-3.92-2.68-8.65-4.25-13.75-4.25c-5.09,0-9.82,1.57-13.73,4.25H10.92C10.87,74.15,10.8,72.84,10.73,71.49z M108.74,116.89
		c1.78-3.39,2.07-7.42,0.8-11.03c-2.32-6.63-9.25-10.51-16.12-9.02L64.7,103.1c0.78-2.38,1.2-4.91,1.2-7.54
		c0-0.75-0.04-1.49-0.11-2.22h64.88c-0.07,0.73-0.11,1.47-0.11,2.22c0,10.35,6.5,19.21,15.62,22.75l-10.77,6.24l-21.93,4.3
		l-23.78-2.08l10.43-2.91C103.84,122.83,106.96,120.28,108.74,116.89z M64.32,86.93c-0.69-1.81-1.59-3.53-2.67-5.11h73.18
		c-1.08,1.58-1.98,3.29-2.67,5.11H64.32z M6.42,81.82h1.36h13.59c-1.08,1.58-1.98,3.29-2.67,5.11H6.42V81.82z M175.1,81.82h17.13
		h1.36v5.11h-15.82C177.07,85.11,176.18,83.4,175.1,81.82z"/>
	<path class="st1" d="M41.5,113.53c0.25,0,0.49-0.03,0.73-0.04c4.3-3.49,9.14-6.23,14.32-8.13c1.85-2.82,2.93-6.19,2.93-9.8
		c0-9.91-8.08-17.97-17.99-17.97s-17.97,8.06-17.97,17.97S31.59,113.53,41.5,113.53z M41.5,84.17c6.28,0,11.39,5.11,11.39,11.39
		c0,6.26-5.1,11.37-11.39,11.37c-6.26,0-11.37-5.1-11.37-11.37C30.13,89.28,35.24,84.17,41.5,84.17z"/>
	<path class="st1" d="M154.96,77.59c-9.91,0-17.97,8.06-17.97,17.97c0,9.75,7.8,17.69,17.49,17.95l15.9-9.21
		c0.13-0.08,0.26-0.14,0.4-0.21c1.37-2.54,2.16-5.44,2.16-8.53C172.93,85.65,164.87,77.59,154.96,77.59z M166.35,95.56
		c0,6.26-5.11,11.37-11.39,11.37c-6.28,0-11.39-5.1-11.39-11.37c0-6.28,5.1-11.39,11.39-11.39
		C161.24,84.17,166.35,89.28,166.35,95.56z"/>
	<path class="st1" d="M154.96,90.59c-2.74,0-4.95,2.22-4.95,4.97c0,2.74,2.22,4.95,4.95,4.95c2.74,0,4.97-2.22,4.97-4.95
		C159.93,92.8,157.7,90.59,154.96,90.59z"/>
	<path class="st2" d="M154.96,84.17c-6.28,0-11.39,5.11-11.39,11.39c0,6.26,5.1,11.37,11.39,11.37c6.28,0,11.39-5.1,11.39-11.37
		C166.35,89.28,161.24,84.17,154.96,84.17z M159.93,95.56c0,2.74-2.23,4.95-4.97,4.95c-2.74,0-4.95-2.22-4.95-4.95
		c0-2.75,2.22-4.97,4.95-4.97C157.7,90.59,159.93,92.8,159.93,95.56z"/>
	<path class="st1" d="M36.54,95.56c0,2.74,2.23,4.95,4.95,4.95c2.75,0,4.97-2.22,4.97-4.95c0-2.75-2.22-4.97-4.97-4.97
		C38.78,90.59,36.54,92.8,36.54,95.56z"/>
	<path class="st2" d="M41.5,106.93c6.28,0,11.39-5.1,11.39-11.37c0-6.28-5.1-11.39-11.39-11.39c-6.26,0-11.37,5.11-11.37,11.39
		C30.13,101.82,35.24,106.93,41.5,106.93z M41.5,90.59c2.75,0,4.97,2.22,4.97,4.97c0,2.74-2.22,4.95-4.97,4.95
		c-2.72,0-4.95-2.22-4.95-4.95C36.54,92.8,38.78,90.59,41.5,90.59z"/>
	<path class="st1" d="M109.97,36.95c0.07,0,0.13,0,0.2-0.02c-0.1-0.59-0.45-1.59-1.12-2.42c-5.07-6.33-10.31-12.02-18.39-12.02
		c-2.1,0-4.21-0.08-6.47-0.19c-8.04-0.34-16.34-0.67-22.25,3.21c-3.48,2.28-6.5,5.53-9.42,8.65c-0.39,0.39-0.79,0.94-1.12,1.51
		c-0.32,0.5-0.5,0.94-0.62,1.28c0,0,0.07,0,0.12,0H109.97z"/>
	<path class="st2" d="M50.89,43.36h59.08c3.85,0,5.42-2.12,6.03-3.36c1.46-3.06,0.02-7.07-1.95-9.5
		c-5.85-7.31-12.48-14.43-23.39-14.43c-1.96,0-4.01-0.08-6.21-0.18c-8.62-0.35-18.39-0.76-26.01,4.26
		c-4.13,2.71-7.42,6.22-10.6,9.61c-0.69,0.74-1.38,1.66-1.95,2.62c-1.83,3.07-2.17,5.95-0.97,8.06
		C45.66,41.77,47.31,43.36,50.89,43.36z M51.39,35.67c0.34-0.57,0.74-1.12,1.12-1.51c2.92-3.12,5.95-6.36,9.42-8.65
		c5.91-3.88,14.21-3.54,22.25-3.21c2.25,0.1,4.37,0.19,6.47,0.19c8.08,0,13.32,5.69,18.39,12.02c0.67,0.82,1.02,1.83,1.12,2.42
		c-0.07,0.02-0.13,0.02-0.2,0.02H50.89c-0.05,0-0.12,0-0.12,0C50.89,36.61,51.07,36.18,51.39,35.67z"/>
	<path class="st1" d="M173.6,109.85l-35.42,20.52c-0.32,0.19-0.66,0.3-0.99,0.37l-22.91,4.48c-0.3,0.05-0.6,0.07-0.91,0.03
		l-41.82-3.64c-1.55-0.13-2.77-1.36-2.92-2.91c-0.13-1.54,0.84-2.95,2.34-3.38l27.44-7.66c2.02-0.55,3.66-1.9,4.63-3.76
		c0.98-1.86,1.12-3.98,0.44-5.96c-1.26-3.56-4.99-5.66-8.68-4.85l-30.21,6.57c-8.21,1.8-15.72,5.88-21.68,11.82l-9.42,9.39
		l8.66,34.68h25.14c16.11,0,30.95-1.36,44.1-4.06c16.54-3.41,29.96-8.87,39.9-16.24c0,0,0.4-0.29,30.65-22.67
		c1.78-1.33,2.91-3.34,3.07-5.56c0.17-2.22-0.64-4.38-2.2-5.95C180.39,108.63,176.59,108.12,173.6,109.85z"/>
	<polygon class="st1" points="26.95,131.2 11.07,137.88 19.23,175.23 37.97,175.23 	"/>
</g>
</svg>
