<svg xmlns="http://www.w3.org/2000/svg" width="88" height="88">
    <path fill="none" fill-rule="evenodd" stroke="#222" stroke-linecap="round" stroke-width="4" d="M43.012 23.115v5.789M35.164 54.157l-3.804 4.844M50.808 54.157l3.803 4.844M56.134 38.262l4.887-1.863M29.863 38.262l-4.886-1.863"/>
    <path fill="none" fill-rule="evenodd" stroke="#222" stroke-width="4" d="M42.998 1.999c22.645 0 41.001 18.357 41.001 41C83.999 65.643 65.643 84 42.998 84 20.355 84 1.999 65.643 1.999 42.999c0-22.643 18.356-41 40.999-41z"/>
    <path fill="none" fill-rule="evenodd" stroke="#222" stroke-width="4" d="M42.998 19.999c12.703 0 23.001 10.298 23.001 23 0 12.703-10.298 23-23.001 23-12.702 0-22.999-10.297-22.999-23 0-12.702 10.297-23 22.999-23z"/>
    <path fill="#FF4B13" fill-rule="evenodd" d="M42.998 36.999c3.315 0 6.001 2.686 6.001 6s-2.686 6-6.001 6c-3.313 0-5.999-2.686-5.999-6s2.686-6 5.999-6z"/>
</svg>
