<?xml version="1.0" encoding="utf-8"?>
<!-- Generator: Adobe Illustrator 25.2.1, SVG Export Plug-In . SVG Version: 6.00 Build 0)  -->
<svg version="1.1" id="레이어_1" xmlns="http://www.w3.org/2000/svg" xmlns:xlink="http://www.w3.org/1999/xlink" x="0px"
	 y="0px" viewBox="0 0 120 99" style="enable-background:new 0 0 120 99;" xml:space="preserve">
<style type="text/css">
	.st0{fill:#FFFFFF;}
	.st1{fill:#231F20;}
</style>
<g>
	<path class="st0" d="M11.34,32.41l2.58-6.79H7.86c-1.87,0-3.4,1.52-3.4,3.4c0,1.87,1.53,3.39,3.4,3.39H11.34z"/>
	<path class="st0" d="M106.67,25.62l2.58,6.79h2.66c1.87,0,3.39-1.52,3.39-3.39c0-1.88-1.52-3.4-3.39-3.4H106.67z"/>
	<path class="st0" d="M26.35,76.08H11.41V86.6c0,4.12,3.34,7.47,7.46,7.47c4.12,0,7.47-3.35,7.47-7.47V76.08z"/>
	<path class="st0" d="M108.24,76.08H93.3V86.6c0,4.12,3.35,7.47,7.47,7.47c4.11,0,7.46-3.35,7.46-7.47V76.08z"/>
	<path class="st0" d="M95.72,9.39c-1.12-2.96-3.99-4.93-7.15-4.93H32.01c-3.15,0-6.03,1.97-7.15,4.93L13.35,39.65h93.89L95.72,9.39z
		 M21.1,34.3c-0.41-0.61-0.5-1.38-0.25-2.06l8.1-21.3c0.48-1.26,1.71-2.1,3.05-2.1h56.56c1.34,0,2.58,0.85,3.05,2.1l8.11,21.3
		c0.26,0.68,0.17,1.45-0.25,2.06c-0.41,0.61-1.11,0.96-1.83,0.96h-74.7C22.21,35.26,21.52,34.91,21.1,34.3z"/>
	<polygon class="st0" points="94.41,30.8 87.74,13.3 32.84,13.3 26.17,30.8 	"/>
	<path class="st1" d="M97.65,35.26c0.72,0,1.42-0.36,1.83-0.96c0.42-0.61,0.5-1.38,0.25-2.06l-8.11-21.3
		c-0.47-1.26-1.7-2.1-3.05-2.1H32.01c-1.34,0-2.57,0.85-3.05,2.1l-8.1,21.3c-0.26,0.68-0.16,1.45,0.25,2.06
		c0.42,0.61,1.11,0.96,1.85,0.96H97.65z M87.74,13.3l6.67,17.5H26.17l6.67-17.5H87.74z"/>
	<path class="st0" d="M115.54,66.07V50.2c0-3.05-2.49-5.54-5.53-5.54H10.24c-3.06,0-5.55,2.49-5.55,5.54v15.88
		c0,3.05,2.49,5.54,5.55,5.54H110C113.05,71.61,115.54,69.13,115.54,66.07z M102.46,50.06c4.45,0,8.07,3.62,8.07,8.08
		c0,4.45-3.62,8.08-8.07,8.08c-4.46,0-8.08-3.63-8.08-8.08C94.38,53.68,98,50.06,102.46,50.06z M18.07,50.06
		c4.46,0,8.08,3.62,8.08,8.08c0,4.45-3.62,8.08-8.08,8.08c-4.45,0-8.08-3.63-8.08-8.08C9.99,53.68,13.62,50.06,18.07,50.06z"/>
	<path class="st1" d="M120,50.2c0-2.38-0.84-4.56-2.23-6.28c-0.44-0.55-0.94-1.04-1.48-1.48c-1.14-0.92-2.49-1.59-3.96-1.95
		l-1.38-3.61h0.96c4.32,0,7.85-3.52,7.85-7.85c0-4.33-3.53-7.86-7.85-7.86h-6.94L99.89,7.8C98.11,3.13,93.56,0,88.57,0H32.01
		c-4.99,0-9.53,3.13-11.3,7.8l-5.09,13.36H7.86C3.53,21.16,0,24.69,0,29.02c0,4.33,3.53,7.85,7.86,7.85h1.78L8.3,40.39
		c-1.62,0.32-3.11,1.03-4.35,2.04c-0.55,0.44-1.05,0.94-1.49,1.49c-1.39,1.72-2.23,3.9-2.23,6.28v15.88c0,2.38,0.84,4.56,2.23,6.28
		c0.44,0.55,0.94,1.05,1.49,1.49c0.89,0.72,1.9,1.28,2.99,1.66V86.6c0,6.58,5.35,11.93,11.92,11.93c6.58,0,11.92-5.36,11.92-11.93
		V76.08h58.04V86.6c0,6.58,5.35,11.93,11.94,11.93c6.58,0,11.92-5.36,11.92-11.93V75.7c1.33-0.37,2.54-1.01,3.58-1.85
		c0.55-0.44,1.04-0.94,1.49-1.49c1.39-1.72,2.23-3.91,2.23-6.29V50.2z M110,71.61H10.24c-3.06,0-5.55-2.49-5.55-5.54V50.2
		c0-3.05,2.49-5.54,5.55-5.54H110c3.05,0,5.53,2.49,5.53,5.54v15.88C115.54,69.13,113.05,71.61,110,71.61z M100.78,94.07
		c-4.12,0-7.47-3.35-7.47-7.47V76.08h14.94V86.6C108.24,90.72,104.89,94.07,100.78,94.07z M18.87,94.07c-4.12,0-7.46-3.35-7.46-7.47
		V76.08h14.94V86.6C26.35,90.72,23,94.07,18.87,94.07z M24.86,9.39c1.12-2.96,3.99-4.93,7.15-4.93h56.56c3.15,0,6.03,1.97,7.15,4.93
		l11.52,30.26H13.35L24.86,9.39z M4.46,29.02c0-1.88,1.53-3.4,3.4-3.4h6.06l-2.58,6.79H7.86C5.99,32.41,4.46,30.89,4.46,29.02z
		 M115.3,29.02c0,1.87-1.52,3.39-3.39,3.39h-2.66l-2.58-6.79h5.24C113.79,25.62,115.3,27.15,115.3,29.02z"/>
	<path class="st0" d="M18.07,61.75c2,0,3.62-1.62,3.62-3.62c0-2-1.62-3.62-3.62-3.62c-1.99,0-3.62,1.62-3.62,3.62
		C14.45,60.13,16.08,61.75,18.07,61.75z"/>
	<path class="st1" d="M18.07,66.21c4.46,0,8.08-3.63,8.08-8.08c0-4.46-3.62-8.08-8.08-8.08c-4.45,0-8.08,3.62-8.08,8.08
		C9.99,62.59,13.62,66.21,18.07,66.21z M18.07,54.52c2,0,3.62,1.62,3.62,3.62c0,2-1.62,3.62-3.62,3.62c-1.99,0-3.62-1.62-3.62-3.62
		C14.45,56.14,16.08,54.52,18.07,54.52z"/>
	<path class="st0" d="M102.46,61.75c1.99,0,3.61-1.62,3.61-3.62c0-2-1.62-3.62-3.61-3.62c-2.01,0-3.62,1.62-3.62,3.62
		C98.84,60.13,100.45,61.75,102.46,61.75z"/>
	<path class="st1" d="M102.46,66.21c4.45,0,8.07-3.63,8.07-8.08c0-4.46-3.62-8.08-8.07-8.08c-4.46,0-8.08,3.62-8.08,8.08
		C94.38,62.59,98,66.21,102.46,66.21z M102.46,54.52c1.99,0,3.61,1.62,3.61,3.62c0,2-1.62,3.62-3.61,3.62
		c-2.01,0-3.62-1.62-3.62-3.62C98.84,56.14,100.45,54.52,102.46,54.52z"/>
</g>
</svg>
