<svg xmlns="http://www.w3.org/2000/svg" width="90" height="84">
    <path fill="none" fill-rule="evenodd" stroke="#222" stroke-linecap="round" stroke-width="4" d="M44.649 56.949c9.739 0 19.857 2.381 27.922 6.591M43.599 4.272c17.871 0 33.264 7.603 40.222 22.604M83.814 27.803L73.473 63.527M44.017 56.949c-9.739 0-19.858 2.381-27.922 6.591M45.066 4.272c-17.871 0-33.264 7.603-40.222 22.604M4.852 27.803l10.341 35.724"/>
    <path fill="none" fill-rule="evenodd" stroke="#FF4B13" stroke-linejoin="round" stroke-width="4" d="M43.117 44.829l-9.043 33.667M62.803 25.309L48.481 78.914"/>
    <path fill="#FF4B13" fill-rule="evenodd" d="M48.759 16.206c1.902 0 3.444 1.54 3.444 3.442 0 1.902-1.542 3.444-3.444 3.444-1.901 0-3.441-1.542-3.441-3.444s1.54-3.442 3.441-3.442zM19.248 25.06c1.902 0 3.443 1.541 3.443 3.443 0 1.901-1.541 3.443-3.443 3.443-1.902 0-3.444-1.542-3.444-3.443 0-1.902 1.542-3.443 3.444-3.443zM34.988 28.995c1.9 0 3.443 1.541 3.443 3.442 0 1.902-1.543 3.444-3.443 3.444-1.902 0-3.444-1.542-3.444-3.444 0-1.901 1.542-3.442 3.444-3.442z"/>
</svg>
