<svg xmlns="http://www.w3.org/2000/svg" width="169" height="188">
    <path fill="#FFF" fill-rule="evenodd" stroke="#EEE" stroke-linecap="round" stroke-linejoin="bevel" stroke-width="6" d="M121.995 20.985L55.015 21 20.031 57.015l-.016 91.975c0 9.945 8.054 18.007 17.991 18.007h87.989c9.936 0 13.991-8.062 13.991-18.007V38.993c0-9.945-8.055-18.008-17.991-18.008z"/>
    <path fill="#FFF" fill-rule="evenodd" stroke="#EEE" stroke-linecap="round" stroke-linejoin="bevel" stroke-width="6" d="M107.995 5.985L41.015 6 6.031 42.015l-.017 91.975c0 9.945 8.055 18.007 17.992 18.007h87.989c9.936 0 13.991-8.062 13.991-18.007V23.993c0-9.945-8.055-18.008-17.991-18.008z"/>
    <path fill="none" fill-rule="evenodd" stroke="#EEE" stroke-linejoin="round" stroke-width="6" d="M6.031 44.016l18.992-.065c9.927 0 17.975-8.063 17.975-18.008L42.981 6"/>
    <path fill="#EEE" fill-rule="evenodd" d="M85.39 62.389c3.314 0 6 2.687 6 6 0 3.314-2.686 6-6 6s-6-2.686-6-6c0-3.313 2.686-6 6-6zM45.797 62.389c3.313 0 6 2.687 6 6 0 3.314-2.687 6-6 6-3.315 0-6.001-2.686-6.001-6 0-3.313 2.686-6 6.001-6z"/>
    <path fill="none" fill-rule="evenodd" stroke="#EEE" stroke-linecap="round" stroke-width="6" d="M51.352 92.514c2.837-5.069 8.309-8.502 14.593-8.502 6.376 0 11.915 3.533 14.715 8.724"/>
    <path fill="#EEE" fill-rule="evenodd" d="M125.4 103.999c21.87 0 39.6 17.729 39.6 39.6 0 21.87-17.73 39.6-39.6 39.6-21.871 0-39.6-17.73-39.6-39.6 0-21.871 17.729-39.6 39.6-39.6z"/>
    <path fill="none" fill-rule="evenodd" stroke="#FFF" stroke-linecap="round" stroke-width="8" d="M126 127v19"/>
    <path fill="#FFF" fill-rule="evenodd" d="M126 156c2.209 0 4 1.791 4 4s-1.791 4-4 4-4-1.791-4-4 1.791-4 4-4z"/>
</svg>
