<svg xmlns="http://www.w3.org/2000/svg" width="188" height="187">
    <path fill="#FFF" fill-rule="evenodd" stroke="#EEE" stroke-linejoin="round" stroke-width="6" d="M148.814 157.047l.199 19.96-19.401-19.919H81.997c-11.598 0-21-9.402-21-21V89.997c0-11.598 9.402-21 21-21h66.006c11.598 0 21 9.402 21 21v46.091c0 11.325-8.97 20.53-20.189 20.959z"/>
    <path fill="#FFF" fill-rule="evenodd" stroke="#EEE" stroke-linejoin="round" stroke-width="6" d="M122.017 137.936H55.749l-24.88 25.088v-25.088h-2.886c-11.598 0-21-9.402-21-21V54.987c0-11.598 9.402-21 21-21h94.034c11.598 0 21 9.402 21 21v61.949c0 11.598-9.402 21-21 21z"/>
    <path fill="#EEE" fill-rule="evenodd" d="M94.39 70.389c3.314 0 6 2.687 6 6.001 0 3.313-2.686 5.999-6 5.999s-6-2.686-6-5.999c0-3.314 2.686-6.001 6-6.001zM54.797 70.389c3.313 0 6 2.687 6 6.001 0 3.313-2.687 5.999-6 5.999-3.315 0-6.001-2.686-6.001-5.999 0-3.314 2.686-6.001 6.001-6.001z"/>
    <path fill="none" fill-rule="evenodd" stroke="#EEE" stroke-linecap="round" stroke-width="6" d="M60.352 100.514c2.837-5.069 8.308-8.502 14.593-8.502 6.376 0 11.915 3.533 14.715 8.724"/>
    <path fill="#EEE" fill-rule="evenodd" d="M144.4-.001c21.87 0 39.599 17.729 39.599 39.6 0 21.87-17.729 39.6-39.599 39.6-21.871 0-39.601-17.73-39.601-39.6 0-21.871 17.73-39.6 39.601-39.6z"/>
    <path fill="none" fill-rule="evenodd" stroke="#FFF" stroke-linecap="round" stroke-width="8" d="M145 23v19"/>
    <path fill="#FFF" fill-rule="evenodd" d="M145 52c2.209 0 4 1.791 4 4s-1.791 4-4 4-4-1.791-4-4 1.791-4 4-4z"/>
</svg>
