<?xml version="1.0" encoding="utf-8"?>
<!-- Generator: Adobe Illustrator 25.2.1, SVG Export Plug-In . SVG Version: 6.00 Build 0)  -->
<svg version="1.1" id="레이어_1" xmlns="http://www.w3.org/2000/svg" xmlns:xlink="http://www.w3.org/1999/xlink" x="0px"
	 y="0px" viewBox="0 0 57 52" style="enable-background:new 0 0 57 52;" xml:space="preserve">
<style type="text/css">
	.st0{fill-rule:evenodd;clip-rule:evenodd;fill:#FF4B13;}
</style>
<path class="st0" d="M34.05,18.35v5.83l3.91,4.65c1.06,1.27,0.9,3.16-0.37,4.23c-1.27,1.06-3.16,0.9-4.23-0.37l-5.31-6.34v-8
	c0-1.66,1.34-3,3-3C32.7,15.35,34.05,16.69,34.05,18.35z M32.05,51.35C17,51.35,9,38,8,34c-0.38-1.51,1-3,3-3s2.56,1.49,3.78,3.24
	C16,36,21,45.35,32.05,45.35c10.49,0,19-8.51,19-19s-8.51-19-19-19c-8.86,0-16.28,6.07-18.38,14.27l1.56-0.64
	c0.51-0.39,1.13-0.63,1.82-0.63c1.66,0,3,1.34,3,3c-0.04,1.88-3.07,2.99-3.07,2.99s-4.01,1.67-4.93,2.01
	c-0.92,0.34-3.8,1.81-4.81,1.98c-0.06,0.01-0.13,0.02-0.19,0.02c-1.66,0-3-1.34-3-3L1.62,18.1c0,0-0.51-1.03-0.57-1.75
	c-0.15-1.65,1.34-3,3-3c1.66,0,3,1.34,3,3l0.92,3.36C10.87,9.13,20.54,1.35,32.05,1.35c13.81,0,25,11.19,25,25
	C57.05,40.16,45.85,51.35,32.05,51.35z"/>
</svg>
