<?xml version="1.0" encoding="utf-8"?>
<!-- Generator: Adobe Illustrator 25.2.1, SVG Export Plug-In . SVG Version: 6.00 Build 0)  -->
<svg version="1.1" id="레이어_1" xmlns="http://www.w3.org/2000/svg" xmlns:xlink="http://www.w3.org/1999/xlink" x="0px"
	 y="0px" viewBox="0 0 120 80" style="enable-background:new 0 0 120 80;" xml:space="preserve">
<style type="text/css">
	.st0{fill:#FFFFFF;}
	.st1{fill:#231F20;}
</style>
<g>
	<path class="st0" d="M10.95,58.89h66.21c-4.79-8.9-6.98-17.28-7.93-23.89c-0.07-0.45,0.07-0.9,0.35-1.25
		c0.29-0.35,0.71-0.56,1.16-0.58c0.71-0.03,1.4-0.13,2.06-0.3H3.2v18.26C3.2,55.41,6.68,58.89,10.95,58.89z M10.13,42.65H41.4
		c0.88,0,1.6,0.71,1.6,1.6s-0.72,1.6-1.6,1.6H10.13c-0.88,0-1.6-0.72-1.6-1.6S9.25,42.65,10.13,42.65z"/>
	<path class="st0" d="M93,13.14v-2.19c0-4.27-3.48-7.75-7.75-7.75H10.95c-4.27,0-7.75,3.48-7.75,7.75v2.19H93z"/>
	<path class="st0" d="M3.2,29.68h74.81c1.55-1.79,2.49-4.11,2.49-6.67c0-0.88,0.72-1.6,1.6-1.6H93v-5.07H3.2V29.68z"/>
	<path class="st1" d="M10.13,45.84H41.4c0.88,0,1.6-0.72,1.6-1.6s-0.72-1.6-1.6-1.6H10.13c-0.88,0-1.6,0.71-1.6,1.6
		S9.25,45.84,10.13,45.84z"/>
	<path class="st0" d="M94.6,76.45c14.74-14.18,20.11-29.39,21.95-40.26c-5.8-1-10.26-5.7-10.96-11.58h-22
		c-0.69,5.87-5.15,10.57-10.96,11.58C74.49,47.06,79.86,62.27,94.6,76.45z M76.64,39.77c-0.18-0.73,0.18-1.49,0.86-1.81
		c1.78-0.85,3.38-2.01,4.77-3.45c1.58-1.65,2.79-3.55,3.58-5.66c0.23-0.63,0.83-1.04,1.5-1.04h14.52c0.66,0,1.26,0.41,1.5,1.04
		c0.79,2.11,1.99,4.01,3.58,5.66c1.38,1.44,2.98,2.6,4.76,3.45c0.68,0.33,1.04,1.08,0.86,1.81c-2.71,11.37-8.35,21.76-16.78,30.91
		c-0.3,0.33-0.73,0.52-1.17,0.52c-0.45,0-0.87-0.19-1.17-0.52C85,61.53,79.34,51.13,76.64,39.77z"/>
	<path class="st1" d="M119.63,33.75c-0.29-0.35-0.72-0.56-1.17-0.58c-5.47-0.22-9.76-4.69-9.76-10.17c0-0.88-0.71-1.6-1.6-1.6H96.2
		v-6.67v-3.79c0-2.08-0.59-4.01-1.6-5.67c-0.92-1.5-2.18-2.77-3.68-3.68C89.27,0.59,87.33,0,85.26,0H10.95
		C8.87,0,6.93,0.59,5.28,1.6C3.78,2.51,2.51,3.78,1.6,5.28C0.59,6.93,0,8.87,0,10.95v3.79v16.54v19.86c0,2.08,0.59,4.01,1.6,5.67
		c0.91,1.5,2.17,2.76,3.68,3.68c1.66,1.01,3.59,1.6,5.67,1.6h68.04c3.54,5.87,8.26,11.9,14.53,17.73c0.3,0.28,0.7,0.43,1.09,0.43
		c0.39,0,0.78-0.14,1.09-0.43C112.72,63.99,118.3,46.71,119.98,35C120.05,34.55,119.92,34.1,119.63,33.75z M93,21.41H82.1
		c-0.88,0-1.6,0.72-1.6,1.6c0,2.56-0.94,4.88-2.49,6.67H3.2V16.34H93V21.41z M72.64,36.18c5.81-1,10.27-5.7,10.96-11.58h22
		c0.69,5.87,5.15,10.57,10.96,11.58c-1.84,10.87-7.21,26.08-21.95,40.26C79.86,62.27,74.49,47.06,72.64,36.18z M10.95,3.2h74.31
		c4.27,0,7.75,3.48,7.75,7.75v2.19H3.2v-2.19C3.2,6.68,6.68,3.2,10.95,3.2z M3.2,51.14V32.88h69.61c-0.66,0.17-1.35,0.27-2.06,0.3
		c-0.45,0.02-0.87,0.23-1.16,0.58c-0.28,0.34-0.42,0.8-0.35,1.25c0.95,6.61,3.14,14.99,7.93,23.89H10.95
		C6.68,58.89,3.2,55.41,3.2,51.14z"/>
	<path class="st0" d="M94.6,67.2c7.12-8.08,12-17.14,14.55-26.97c-1.66-0.94-3.17-2.11-4.51-3.51c-1.63-1.68-2.92-3.6-3.85-5.71
		H88.42c-0.94,2.11-2.23,4.03-3.85,5.71c-1.34,1.4-2.86,2.57-4.51,3.51C82.6,50.06,87.49,59.12,94.6,67.2z"/>
	<path class="st1" d="M93.43,70.67c0.3,0.33,0.72,0.52,1.17,0.52c0.44,0,0.87-0.19,1.17-0.52c8.43-9.15,14.08-19.54,16.78-30.91
		c0.18-0.73-0.18-1.49-0.86-1.81c-1.78-0.85-3.38-2.01-4.76-3.45c-1.58-1.65-2.79-3.55-3.58-5.66c-0.24-0.63-0.84-1.04-1.5-1.04
		H87.34c-0.67,0-1.27,0.41-1.5,1.04c-0.79,2.11-1.99,4.01-3.58,5.66c-1.38,1.44-2.99,2.6-4.77,3.45c-0.68,0.33-1.04,1.08-0.86,1.81
		C79.34,51.13,85,61.53,93.43,70.67z M80.06,40.23c1.66-0.94,3.17-2.11,4.51-3.51c1.63-1.68,2.92-3.6,3.85-5.71h12.36
		c0.94,2.11,2.23,4.03,3.85,5.71c1.34,1.4,2.86,2.57,4.51,3.51c-2.55,9.83-7.43,18.89-14.55,26.97
		C87.49,59.12,82.6,50.06,80.06,40.23z"/>
</g>
</svg>
