<?xml version="1.0" encoding="utf-8"?>
<!-- Generator: Adobe Illustrator 25.2.1, SVG Export Plug-In . SVG Version: 6.00 Build 0)  -->
<svg version="1.1" id="레이어_1" xmlns="http://www.w3.org/2000/svg" xmlns:xlink="http://www.w3.org/1999/xlink" x="0px"
	 y="0px" viewBox="0 0 120 120" style="enable-background:new 0 0 120 120;" xml:space="preserve">
<style type="text/css">
	.st0{fill:#FFFFFF;}
	.st1{fill:#231F20;}
</style>
<g>
	<path class="st0" d="M88.43,78.63l-8.09,8.08l25.16,25.17c2.24,2.23,5.86,2.23,8.1,0c2.22-2.24,2.22-5.86,0-8.1L88.43,78.63z"/>
	<path class="st1" d="M116.94,100.45L91.61,75.13c1.66-2.77,1.31-6.42-1.07-8.8c-2.82-2.82-7.4-2.82-10.2,0l-1.97,1.96l-5.44-5.44
		l16.4-16.4c2.25,0.68,4.59,1.03,6.92,1.03c6.08,0,12.17-2.3,16.79-6.94c5.34-5.36,7.79-12.71,6.7-20.22
		c-0.12-0.88-0.74-1.61-1.58-1.89c-0.85-0.28-1.79-0.06-2.42,0.57l-11.26,11.27l-11.64-3.12l-3.12-11.62L101,4.26
		c0.63-0.63,0.85-1.57,0.57-2.41c-0.28-0.85-1.01-1.47-1.9-1.6c-7.49-1.09-14.86,1.36-20.21,6.7c-6.46,6.46-8.4,15.73-5.85,23.89
		L57.27,47.19L22.2,12.12c-0.47-0.47-1.14-0.73-1.78-0.69l-4.81,0.23c-1.21,0.05-2.19,1.03-2.25,2.24l-0.22,4.81
		c-0.04,0.66,0.21,1.31,0.68,1.78l35.07,35.07L30.85,73.61c-8.16-2.55-17.44-0.6-23.89,5.85C1.6,84.8-0.83,92.17,0.25,99.66
		c0.12,0.89,0.74,1.62,1.6,1.9c0.84,0.28,1.78,0.06,2.41-0.57l11.26-11.28l11.64,3.12l3.1,11.62L19,115.74
		c-0.63,0.63-0.85,1.57-0.57,2.42c0.28,0.84,1.01,1.46,1.89,1.58c1.17,0.17,2.34,0.25,3.5,0.25c6.25,0,12.21-2.44,16.72-6.95
		c6.41-6.41,8.38-15.61,5.91-23.73l18.1-18.1l5.44,5.44l-2.43,2.43c-2.81,2.82-2.81,7.4,0,10.2c1.41,1.4,3.26,2.11,5.11,2.11
		c1.5,0,3-0.48,4.26-1.41l25.24,25.24c2.04,2.04,4.71,3.05,7.4,3.05c2.67,0,5.34-1.01,7.38-3.05
		C121.01,111.16,121.01,104.54,116.94,100.45z M113.6,111.89c-2.24,2.23-5.86,2.23-8.1,0L80.34,86.72l8.09-8.08l25.17,25.16
		C115.83,106.03,115.83,109.66,113.6,111.89z M70.91,85.95c-0.98-0.98-0.98-2.55,0-3.52l4.09-4.09l5.03-5.03l3.64-3.64
		c0.48-0.48,1.13-0.73,1.76-0.73c0.64,0,1.27,0.25,1.77,0.73c0.96,0.96,0.96,2.55,0,3.51L74.42,85.95
		C73.46,86.91,71.88,86.91,70.91,85.95z M42.78,96.25c0,5.08-1.98,9.86-5.58,13.45c-3,3-6.81,4.87-10.9,5.4l8.27-8.26
		c0.59-0.61,0.83-1.47,0.61-2.29L31.37,90.3c-0.21-0.82-0.85-1.45-1.67-1.67l-14.26-3.82c-0.21-0.06-0.41-0.09-0.62-0.09
		c-0.62,0-1.22,0.25-1.67,0.69l-8.26,8.27c0.54-4.08,2.4-7.89,5.4-10.89c3.6-3.59,8.37-5.58,13.45-5.58c5.08,0,9.86,1.99,13.45,5.58
		C40.8,86.38,42.78,91.17,42.78,96.25z M40.54,79.46c-1.54-1.54-3.24-2.79-5.05-3.82L75.64,35.5c1.03,1.8,2.28,3.5,3.82,5.04
		c1.58,1.58,3.33,2.87,5.19,3.91l-40.2,40.19C43.41,82.79,42.12,81.03,40.54,79.46z M17.99,16.28l1.61-0.07l34.33,34.32l-1.69,1.69
		L17.9,17.89L17.99,16.28z M77.23,23.75c0-5.08,1.97-9.86,5.56-13.45c3.02-3,6.81-4.86,10.9-5.4l-8.27,8.26
		c-0.59,0.59-0.82,1.47-0.61,2.29l3.82,14.26c0.22,0.82,0.85,1.45,1.67,1.67l14.26,3.82c0.82,0.22,1.68-0.01,2.29-0.62l8.26-8.26
		c-0.53,4.08-2.4,7.89-5.4,10.89c-3.6,3.6-8.37,5.58-13.45,5.58c-5.08,0-9.87-1.98-13.45-5.58C79.2,33.6,77.23,28.83,77.23,23.75z
		 M69.59,66.19l5.44,5.44l-1.69,1.69l-5.44-5.44L69.59,66.19z"/>
	<polygon class="st0" points="53.93,50.53 19.59,16.21 17.99,16.28 17.9,17.89 52.23,52.22 	"/>
	
		<rect x="70.26" y="65.91" transform="matrix(0.707 -0.7072 0.7072 0.707 -28.3928 70.9711)" class="st0" width="2.39" height="7.69"/>
	<path class="st0" d="M87.2,73.18c0.96-0.96,0.96-2.55,0-3.51c-0.5-0.48-1.13-0.73-1.77-0.73c-0.63,0-1.27,0.25-1.76,0.73
		l-3.64,3.64l-5.03,5.03l-4.09,4.09c-0.98,0.98-0.98,2.55,0,3.52c0.96,0.96,2.55,0.96,3.51,0L87.2,73.18z"/>
	<path class="st0" d="M84.65,44.45c-1.86-1.04-3.61-2.33-5.19-3.91c-1.53-1.53-2.79-3.24-3.82-5.04L35.5,75.64
		c1.8,1.03,3.51,2.28,5.05,3.82c1.58,1.58,2.86,3.33,3.9,5.19L84.65,44.45z"/>
	<path class="st0" d="M37.2,82.8c-3.6-3.59-8.37-5.58-13.45-5.58c-5.08,0-9.86,1.99-13.45,5.58c-3,3-4.86,6.81-5.4,10.89l8.26-8.27
		c0.45-0.44,1.05-0.69,1.67-0.69c0.21,0,0.41,0.03,0.62,0.09l14.26,3.82c0.82,0.22,1.46,0.85,1.67,1.67l3.82,14.26
		c0.22,0.82-0.01,1.68-0.61,2.29l-8.27,8.26c4.08-0.53,7.89-2.4,10.9-5.4c3.6-3.6,5.58-8.37,5.58-13.45S40.8,86.38,37.2,82.8z"/>
	<path class="st0" d="M82.8,37.2c3.59,3.6,8.37,5.58,13.45,5.58c5.08,0,9.86-1.98,13.45-5.58c3.01-3,4.87-6.81,5.4-10.89l-8.26,8.26
		c-0.61,0.61-1.47,0.84-2.29,0.62L90.3,31.37c-0.82-0.22-1.45-0.85-1.67-1.67l-3.82-14.26c-0.21-0.82,0.01-1.69,0.61-2.29l8.27-8.26
		c-4.08,0.54-7.88,2.4-10.9,5.4c-3.6,3.6-5.56,8.37-5.56,13.45S79.2,33.6,82.8,37.2z"/>
</g>
</svg>
