<?xml version="1.0" encoding="utf-8"?>
<!-- Generator: Adobe Illustrator 25.2.1, SVG Export Plug-In . SVG Version: 6.00 Build 0)  -->
<svg version="1.1" id="레이어_1" xmlns="http://www.w3.org/2000/svg" xmlns:xlink="http://www.w3.org/1999/xlink" x="0px"
	 y="0px" viewBox="0 0 120 159" style="enable-background:new 0 0 120 159;" xml:space="preserve">
<style type="text/css">
	.st0{fill:#FFFFFF;}
	.st1{fill:#231F20;}
</style>
<g>
	<path class="st0" d="M103.29,22.65h-6.43v6.71h4.88c1.5,0,2.72,1.22,2.72,2.71V141.6c0,1.49-1.21,2.71-2.72,2.71H19.82
		c-1.5,0-2.71-1.22-2.71-2.71V32.07c0-1.49,1.21-2.71,2.71-2.71h3.33v-6.71h-6.44c-6.24,0-11.29,5.06-11.29,11.29v108.69
		c0,6.24,5.06,11.29,11.29,11.29h86.57c6.24,0,11.29-5.06,11.29-11.29V33.94C114.58,27.7,109.52,22.65,103.29,22.65z"/>
	<path class="st1" d="M106.01,17.23h-9.15v-1.9c0-1.5-1.22-2.71-2.71-2.71H75.09C73.81,5.45,67.53,0,60,0
		c-7.53,0-13.81,5.45-15.09,12.61H25.86c-1.5,0-2.71,1.21-2.71,2.71v1.9h-9.16C6.29,17.23,0,23.52,0,31.22v114.12
		c0,7.74,6.27,14.01,14.01,14.01H106c7.73,0,14-6.27,14-14V31.22C120,23.52,113.71,17.23,106.01,17.23z M114.58,142.63
		c0,6.24-5.06,11.29-11.29,11.29H16.71c-6.24,0-11.29-5.06-11.29-11.29V33.94c0-6.24,5.06-11.29,11.29-11.29h6.44v6.71h-3.33
		c-1.5,0-2.71,1.22-2.71,2.71V141.6c0,1.49,1.21,2.71,2.71,2.71h81.92c1.5,0,2.72-1.22,2.72-2.71V32.07c0-1.49-1.21-2.71-2.72-2.71
		h-4.88v-6.71h6.43c6.24,0,11.29,5.06,11.29,11.29V142.63z M47.38,18.03c1.5,0,2.71-1.21,2.71-2.71c0-5.46,4.45-9.92,9.91-9.92
		c5.47,0,9.91,4.45,9.91,9.92c0,1.5,1.22,2.71,2.71,2.71h18.81V34.3H28.56V18.03H47.38z M25.86,39.7h68.29
		c1.49,0,2.71-1.21,2.71-2.7v-2.23h2.17v104.11h-76.5V34.78h0.62v2.23C23.15,38.5,24.36,39.7,25.86,39.7z"/>
	<path class="st0" d="M22.53,34.78v104.11h76.5V34.78h-2.17v2.23c0,1.49-1.22,2.7-2.71,2.7H25.86c-1.5,0-2.71-1.21-2.71-2.7v-2.23
		H22.53z M41.62,70.98c-0.87-1.22-0.61-2.91,0.61-3.79c1.21-0.88,2.91-0.61,3.78,0.61l0.74,1.03c3.8-3.2,8.69-5.14,14.04-5.14
		c4.73,0,9.11,1.52,12.68,4.09l6.84-10.49c0.82-1.26,2.51-1.6,3.76-0.79c1.25,0.82,1.6,2.5,0.79,3.76L77.5,71.52
		c3.16,3.78,5.07,8.65,5.07,13.95c0,12-9.78,21.79-21.78,21.79c-12.02,0-21.79-9.79-21.79-21.79c0-4.68,1.49-9.03,4.02-12.58
		L41.62,70.98z"/>
	<path class="st0" d="M28.56,34.3h62.87V18.03H72.62c-1.49,0-2.71-1.21-2.71-2.71c0-5.46-4.44-9.92-9.91-9.92
		c-5.46,0-9.91,4.45-9.91,9.92c0,1.5-1.21,2.71-2.71,2.71H28.56V34.3z"/>
	<path class="st0" d="M60.79,101.85c9.02,0,16.36-7.35,16.36-16.38c0-3.38-1.03-6.52-2.79-9.13L62.83,94
		c-0.48,0.75-1.31,1.21-2.2,1.22l-0.07,0.01c-0.87,0-1.69-0.43-2.19-1.13L46.43,77.62c-1.28,2.33-2.02,5.01-2.02,7.86
		C44.41,94.5,51.76,101.85,60.79,101.85z"/>
	<path class="st0" d="M70.5,72.33c-2.72-2.02-6.07-3.23-9.71-3.23c-4.16,0-7.95,1.57-10.84,4.14l10.5,14.51L70.5,72.33z"/>
	<path class="st1" d="M60.79,107.27c12,0,21.78-9.79,21.78-21.79c0-5.3-1.91-10.17-5.07-13.95l7.36-11.28
		c0.82-1.26,0.46-2.94-0.79-3.76c-1.26-0.81-2.94-0.47-3.76,0.79l-6.84,10.49c-3.58-2.57-7.95-4.09-12.68-4.09
		c-5.34,0-10.24,1.94-14.04,5.14l-0.74-1.03c-0.87-1.22-2.57-1.49-3.78-0.61c-1.22,0.88-1.48,2.57-0.61,3.79l1.39,1.92
		c-2.52,3.56-4.02,7.9-4.02,12.58C38.99,97.48,48.77,107.27,60.79,107.27z M58.38,94.1c0.5,0.71,1.32,1.13,2.19,1.13l0.07-0.01
		c0.89-0.01,1.72-0.47,2.2-1.22l11.53-17.66c1.76,2.61,2.79,5.76,2.79,9.13c0,9.02-7.34,16.38-16.36,16.38
		c-9.03,0-16.37-7.35-16.37-16.38c0-2.85,0.73-5.52,2.02-7.86L58.38,94.1z M49.95,73.24c2.89-2.56,6.68-4.14,10.84-4.14
		c3.64,0,6.99,1.21,9.71,3.23L60.45,87.75L49.95,73.24z"/>
</g>
</svg>
