<svg xmlns="http://www.w3.org/2000/svg" width="187" height="187">
    <path fill="#FFF" fill-rule="evenodd" stroke="#EEE" stroke-linejoin="round" stroke-width="6" d="M147.338 102.926l-4.467-2.132c-1.847-.882-3.035-2.743-2.974-4.768.016-.507.024-1.016.024-1.527 0-.511-.008-1.02-.024-1.527-.061-2.025 1.127-3.886 2.974-4.768l4.467-2.132c2.766-.888 4.28-3.823 3.381-6.555l-4.881-14.844c-.899-2.732-3.869-4.228-6.635-3.34l-4.887.87c-2.043.364-4.094-.505-5.277-2.19-.556-.791-1.13-1.568-1.723-2.331-1.268-1.634-1.476-3.84-.49-5.655l2.351-4.329c1.709-2.324 1.188-5.578-1.165-7.267l-12.779-9.174c-2.353-1.688-5.645-1.173-7.355 1.151l-3.428 3.535c-1.439 1.484-3.618 1.97-5.58 1.291-.919-.317-1.847-.614-2.785-.889-1.997-.586-3.476-2.249-3.758-4.288l-.671-4.857c0-2.873-2.358-5.202-5.266-5.202H70.594c-2.908 0-5.265 2.329-5.265 5.202l-.671 4.857c-.283 2.039-1.762 3.702-3.758 4.288-.938.275-1.867.572-2.785.889-1.962.679-4.141.193-5.58-1.291l-3.429-3.535c-1.709-2.324-5.001-2.839-7.354-1.151l-12.779 9.174c-2.353 1.689-2.874 4.943-1.165 7.267l2.351 4.329c.986 1.815.778 4.021-.491 5.655-.592.763-1.166 1.54-1.722 2.331-1.184 1.685-3.235 2.554-5.278 2.19l-4.886-.87c-2.766-.888-5.736.608-6.635 3.34L6.266 79.517c-.899 2.732.615 5.667 3.38 6.555l4.468 2.132c1.847.882 3.035 2.743 2.973 4.768-.015.507-.023 1.016-.023 1.527 0 .511.008 1.02.023 1.527.062 2.025-1.126 3.886-2.973 4.768l-4.468 2.132c-2.765.888-4.279 3.823-3.38 6.555l4.881 14.844c.899 2.732 3.869 4.228 6.635 3.34l4.886-.87c2.043-.364 4.094.505 5.278 2.19.556.791 1.13 1.568 1.722 2.331 1.269 1.634 1.477 3.84.491 5.655l-2.351 4.329c-1.709 2.324-1.188 5.578 1.165 7.267l12.779 9.174c2.353 1.688 5.645 1.173 7.354-1.151l3.429-3.535c1.439-1.483 3.618-1.97 5.58-1.291.918.317 1.847.614 2.785.889 1.996.586 3.475 2.249 3.758 4.288l.671 4.857c0 2.873 2.357 5.202 5.265 5.202H86.39c2.908 0 5.266-2.329 5.266-5.202l.671-4.857c.282-2.039 1.761-3.702 3.758-4.288.938-.275 1.866-.572 2.785-.889 1.962-.679 4.141-.192 5.58 1.291l3.428 3.535c1.71 2.324 5.002 2.839 7.355 1.151l12.779-9.174c2.353-1.689 2.874-4.943 1.165-7.267l-2.351-4.329c-.986-1.815-.778-4.021.49-5.655.593-.763 1.167-1.54 1.722-2.331 1.184-1.685 3.235-2.554 5.278-2.19l4.887.87c2.766.888 5.736-.608 6.635-3.34l4.881-14.844c.899-2.732-.615-5.667-3.381-6.555z"/>
    <path fill="#EEE" fill-rule="evenodd" d="M98.39 79.389c3.314 0 6 2.687 6 6.001 0 3.313-2.686 5.999-6 5.999s-6-2.686-6-5.999c0-3.314 2.686-6.001 6-6.001zM58.797 79.389c3.313 0 6 2.687 6 6.001 0 3.313-2.687 5.999-6 5.999-3.315 0-6.001-2.686-6.001-5.999 0-3.314 2.686-6.001 6.001-6.001z"/>
    <path fill="none" fill-rule="evenodd" stroke="#EEE" stroke-linecap="round" stroke-width="6" d="M64.382 105.587c2.831 5.009 8.292 8.401 14.563 8.401 6.363 0 11.89-3.491 14.685-8.621"/>
    <path fill="#FFF" fill-rule="evenodd" stroke="#EEE" stroke-linecap="round" stroke-linejoin="round" stroke-width="6" d="M149.893 136.637l-28.72 36.616c-3.923 3.924-10.109 4.099-13.817.392-3.707-3.708-3.532-9.895.392-13.819l35.611-29.722"/>
    <path fill="#FFF" fill-rule="evenodd" stroke="#EEE" stroke-linejoin="round" stroke-width="6" d="M171.492 132.424c-6.762 6.758-16.552 6.128-23.281-.172l-.021.02c-.079-.079-.147-.165-.224-.245-.08-.077-.166-.145-.245-.224l.021-.019c-6.304-6.726-6.934-16.512-.173-23.271 5.687-5.683 12.507-5.176 18.133-4l-9.049 9.253 5.021 5.019h0l4.562 4.56 9.259-9.044c1.176 5.623 1.714 12.409-4.003 18.123z"/>
    <path fill="#EEE" fill-rule="evenodd" d="M141.399-.001c21.871 0 39.6 17.729 39.6 39.6 0 21.87-17.729 39.6-39.6 39.6-21.87 0-39.6-17.73-39.6-39.6 0-21.871 17.73-39.6 39.6-39.6z"/>
    <path fill="none" fill-rule="evenodd" stroke="#FFF" stroke-linecap="round" stroke-width="8" d="M142 23v19"/>
    <path fill="#FFF" fill-rule="evenodd" d="M142 52c2.209 0 4 1.791 4 4s-1.791 4-4 4-4-1.791-4-4 1.791-4 4-4z"/>
</svg>
