<svg xmlns="http://www.w3.org/2000/svg" width="90" height="84">
    <path fill="none" fill-rule="evenodd" stroke="#222" stroke-linecap="round" stroke-width="4" d="M44.651 56.95c9.737 0 19.856 2.382 27.921 6.591M43.6 4.273c17.871 0 33.264 7.603 40.222 22.603M83.814 27.804l-10.34 35.724M44.018 56.95c-9.739 0-19.858 2.382-27.922 6.591M45.067 4.273c-17.871 0-33.263 7.603-40.221 22.603M4.853 27.804l10.341 35.724"/>
    <path fill="none" fill-rule="evenodd" stroke="#125A96" stroke-linejoin="round" stroke-width="4" d="M43.118 44.83l-9.043 33.667M62.804 25.31L48.482 78.915"/>
    <path fill="#125A96" fill-rule="evenodd" d="M48.76 16.207c1.902 0 3.443 1.54 3.443 3.442 0 1.902-1.541 3.444-3.443 3.444-1.901 0-3.441-1.542-3.441-3.444s1.54-3.442 3.441-3.442zM19.25 25.06c1.9 0 3.442 1.542 3.442 3.444 0 1.901-1.542 3.443-3.442 3.443-1.903 0-3.445-1.542-3.445-3.443 0-1.902 1.542-3.444 3.445-3.444zM34.989 28.996c1.9 0 3.443 1.541 3.443 3.442 0 1.902-1.543 3.443-3.443 3.443-1.902 0-3.445-1.541-3.445-3.443 0-1.901 1.543-3.442 3.445-3.442z"/>
</svg>
