<svg xmlns="http://www.w3.org/2000/svg" width="72" height="82">
    <path fill="none" fill-rule="evenodd" stroke="#111" stroke-linecap="round" stroke-width="4" d="M6.999 63.999v-44c0-2.761 2.238-5 5-5h46c2.761 0 5 2.239 5 5v44M9 64h52c2.761 0 5 2.239 5 5v2c0 2.761-2.239 5-5 5H9c-2.761 0-5-2.239-5-5v-2c0-2.761 2.239-5 5-5zM48.999 4v10.999M20.999 4v10.999"/>
    <path fill="none" fill-rule="evenodd" stroke="#FF4B13" stroke-linecap="round" stroke-width="4" d="M45.999 32.999v12M39.999 38.999h12M18.999 38.999h10"/>
</svg>
