<svg xmlns="http://www.w3.org/2000/svg" width="57" height="56">
    <path fill="#FFF" fill-rule="evenodd" stroke="#FF4B13" stroke-width="4" d="M14.25 6.01c-.715 0-1.391.228-1.954.658L9.748 8.611c-2.367 1.804-3.339 4.919-2.422 7.75 4.699 14.488 16.086 26.174 30.462 31.258 2.52.892 5.483.208 7.354-1.685l2.914-2.949c.603-.611.936-1.416.936-2.267 0-1.215-.675-2.317-1.764-2.875l-8.375-4.302c-.338-.173-.75-.021-.907.124l-.979.898c-2.412 2.213-6.158 2.719-9.074 1.217-3.757-1.935-6.767-4.94-8.7-8.691-1.531-2.967-1.042-6.611 1.218-9.066l.895-.975c.097-.106.214-.287.214-.545 0-.127-.03-.25-.088-.363l-4.306-8.368c-.559-1.087-1.662-1.762-2.876-1.762z"/>
</svg>
