<svg xmlns="http://www.w3.org/2000/svg" width="224.5" height="207.5">
    <path fill="#FF4B13" fill-rule="evenodd" stroke="#222" stroke-linejoin="round" stroke-width="9" d="M130.677 115.146c2.287.908 4.695 2.205 7.189 3.93 18.91 13.086 45.244 34.166 45.244 34.166 9.549 9.521 9.974 24.534.953 33.532-9.021 8.997-24.071 8.574-33.617-.95 0 0-21.621-26.412-34.25-45.187-1.072-1.593-1.974-3.152-2.716-4.668"/>
    <path fill="#FFF" fill-rule="evenodd" d="M93.883 100.966c1.727-2.154 4.932-2.544 7.158-.87l77.174 57.993c2.226 1.674 2.631 4.776.904 6.93-1.727 2.154-4.932 2.544-7.158.871l-77.173-57.994c-2.227-1.674-2.632-4.776-.905-6.93z" opacity=".18"/>
    <path fill="none" fill-rule="evenodd" stroke="#222" stroke-linejoin="round" stroke-width="9" d="M72.74 75.161l26.012 26.293"/>
    <path fill="#FFF" fill-rule="evenodd" stroke="#222" stroke-linejoin="round" stroke-width="9" d="M79.048 61.757L59.237 81.806l-30.521-2.073L9.491 32.345l19.81-20.049 47.414 18.866 2.333 30.595z"/>
    <path fill="#FF4B13" fill-rule="evenodd" stroke="#222" stroke-linecap="round" stroke-linejoin="round" stroke-width="9" d="M144.07 92.937l-72.736 92.73c-9.937 9.938-25.604 10.382-34.992.992-9.387-9.391-8.945-25.059.99-34.995L127.52 76.39"/>
    <path fill="#FFF" fill-rule="evenodd" d="M142.996 79.701c2.266 2.633 1.965 6.602-.673 8.864l-91.422 78.412c-2.638 2.262-6.613 1.961-8.879-.672-2.266-2.633-1.965-6.601.673-8.864l91.422-78.411c2.638-2.262 6.613-1.962 8.879.671z" opacity=".18"/>
    <path fill="#FFF" fill-rule="evenodd" stroke="#222" stroke-linejoin="round" stroke-width="9" d="M198.768 82.266c-17.127 17.117-41.946 15.553-58.988-.409l-.026.024c-.193-.193-.373-.392-.562-.587-.208-.201-.42-.394-.625-.599l.027-.025c-15.973-17.032-17.538-41.84-.411-58.958 14.404-14.394 31.673-13.111 45.921-10.131l-22.915 23.433 13.877 13.873-.001.001 10.393 10.384 23.447-22.905c2.98 14.241 4.341 31.428-10.137 45.899z"/>
</svg>
