<svg xmlns="http://www.w3.org/2000/svg" width="90" height="84">
    <path fill="none" fill-rule="evenodd" stroke="#222" stroke-linecap="round" stroke-width="4" d="M44.651 56.95c9.737 0 19.856 2.381 27.921 6.591M43.6 4.273c17.87 0 33.264 7.603 40.222 22.603M83.814 27.803l-10.34 35.725M44.018 56.95c-9.739 0-19.858 2.381-27.923 6.591M45.067 4.273c-17.871 0-33.263 7.603-40.221 22.603M4.853 27.803l10.341 35.725"/>
    <path fill="none" fill-rule="evenodd" stroke="#FF4B13" stroke-linejoin="round" stroke-width="4" d="M43.117 44.83l-9.042 33.666M62.803 25.309L48.481 78.914"/>
    <path fill="#FF4B13" fill-rule="evenodd" d="M48.76 16.206c1.902 0 3.443 1.541 3.443 3.442 0 1.902-1.541 3.445-3.443 3.445-1.901 0-3.442-1.543-3.442-3.445 0-1.901 1.541-3.442 3.442-3.442zM19.249 25.06c1.901 0 3.443 1.541 3.443 3.443 0 1.902-1.542 3.443-3.443 3.443-1.902 0-3.444-1.541-3.444-3.443 0-1.902 1.542-3.443 3.444-3.443zM34.988 28.995c1.901 0 3.444 1.542 3.444 3.442 0 1.903-1.543 3.444-3.444 3.444s-3.444-1.541-3.444-3.444c0-1.9 1.543-3.442 3.444-3.442z"/>
</svg>
