<svg xmlns="http://www.w3.org/2000/svg" width="187" height="186">
    <path fill="#FFF" fill-rule="evenodd" stroke="#EEE" stroke-linejoin="round" stroke-width="6" d="M148.813 157.047l.2 19.96-19.401-19.919H81.996c-11.597 0-21-9.402-21-21V89.997c0-11.599 9.403-21.001 21-21.001h66.007c11.598 0 21 9.402 21 21.001v46.091c0 11.325-8.97 20.53-20.19 20.959z"/>
    <path fill="#FFF" fill-rule="evenodd" stroke="#EEE" stroke-linejoin="round" stroke-width="6" d="M122.017 137.936H55.748l-24.88 25.088v-25.088h-2.885c-11.599 0-21-9.402-21-21V54.987c0-11.598 9.401-21 21-21h94.034c11.598 0 21 9.402 21 21v61.949c0 11.598-9.402 21-21 21z"/>
    <path fill="#EEE" fill-rule="evenodd" d="M94.389 70.389c3.314 0 6 2.686 6 6s-2.686 6-6 6c-3.313 0-6-2.686-6-6s2.687-6 6-6zM54.796 70.389c3.314 0 6 2.686 6 6s-2.686 6-6 6-6.001-2.686-6.001-6 2.687-6 6.001-6z"/>
    <path fill="none" fill-rule="evenodd" stroke="#EEE" stroke-linecap="round" stroke-width="6" d="M60.351 100.514c2.837-5.069 8.309-8.502 14.593-8.502 6.376 0 11.915 3.533 14.715 8.724"/>
    <path fill="#EEE" fill-rule="evenodd" d="M144.399-.002C166.27-.002 184 17.728 184 39.599c0 21.87-17.73 39.6-39.601 39.6s-39.6-17.73-39.6-39.6c0-21.871 17.729-39.601 39.6-39.601z"/>
    <path fill="none" fill-rule="evenodd" stroke="#FFF" stroke-linecap="round" stroke-width="6" d="M136.533 31.417s.035-8.331 7.285-8.331c7.251 0 10.304 6.496 7.285 12.118-3.74 6.968-6.556 2.313-6.556 9.407"/>
    <path fill="#FFF" fill-rule="evenodd" d="M144.399 52.386c2.154 0 3.9 1.754 3.9 3.919 0 2.164-1.746 3.918-3.9 3.918s-3.9-1.754-3.9-3.918c0-2.165 1.746-3.919 3.9-3.919z"/>
</svg>
